<svg width="214" height="64" viewBox="0 0 214 64" fill="none" xmlns="http://www.w3.org/2000/svg">
<g clip-path="url(#clip0)">
<path d="M29.6481 63.9164C23.2196 63.4495 16.9494 60.9692 11.8689 56.8833C10.6482 55.9016 8.25574 53.6123 8.25574 53.426C8.25574 53.3693 8.68948 53.2582 9.2196 53.1792C10.3521 53.0103 12.216 52.5323 13.2281 52.1512L13.9441 51.8816L14.7241 52.534C22.0606 58.6709 31.9602 60.4513 40.9553 57.2516C43.6266 56.3014 46.8973 54.4342 48.9834 52.6686L49.8561 51.93L51.3051 52.3826C52.7951 52.8481 53.9516 53.1137 55.0541 53.2435C55.4004 53.2843 55.6838 53.3538 55.6838 53.398C55.6838 53.5574 53.0329 56.054 51.9115 56.9508C45.5635 62.0273 37.6648 64.4985 29.6481 63.9164V63.9164ZM33.9598 62.8165C40.9392 62.3056 47.0959 59.7363 52.3395 55.1464C52.902 54.6541 53.3622 54.2124 53.3622 54.1649C53.3622 54.1175 53.0848 54.0209 52.7458 53.9504C52.4068 53.8798 51.6753 53.6794 51.1202 53.505L50.1111 53.1878L49.3605 53.7958C45.5561 56.8768 40.7903 58.9321 35.7287 59.6746C34.0809 59.9163 30.048 59.9474 28.4873 59.7304C23.5258 59.0406 19.0013 57.1923 15.1972 54.3015C14.5834 53.835 13.9962 53.3896 13.8924 53.3116C13.7348 53.1932 13.5372 53.2238 12.6961 53.4971C12.142 53.6771 11.4015 53.8841 11.0506 53.9572L10.4125 54.0899L11.2765 54.9068C12.3768 55.9472 14.3157 57.4078 15.8491 58.3515C21.2152 61.6536 27.7698 63.2696 33.9598 62.8165V62.8165ZM29.8334 54.5058C27.8638 54.298 25.5836 53.7574 23.8664 53.0912L23.0597 52.7782L23.7559 52.1097C25.6175 50.322 27.7765 49.2257 30.3097 48.7817C32.8568 48.3354 36.0312 49.1018 38.4508 50.7472C39.0667 51.1661 40.6465 52.5465 40.7356 52.7438C40.7828 52.8484 38.6935 53.5788 37.4248 53.9011C36.8181 54.0553 35.84 54.2559 35.2513 54.347C33.9271 54.5518 31.0647 54.6357 29.8334 54.5058V54.5058ZM33.9204 53.3928C35.2887 53.254 36.9154 52.9349 38.0163 52.5893L38.8187 52.3374L37.8205 51.6681C36.7297 50.9368 35.5705 50.4102 34.2556 50.0485C33.143 49.7426 30.9015 49.7173 29.7738 49.9981C28.2808 50.3698 26.4745 51.2384 25.503 52.0518L25.1168 52.3752L25.9012 52.6094C28.4472 53.3694 31.3521 53.6532 33.9204 53.3928V53.3928ZM119.142 49.6303V46.8599H119.419C119.651 46.8599 119.695 46.912 119.695 47.1871V47.5142L119.988 47.2419C120.39 46.8685 121 46.704 121.631 46.7988C122.26 46.8934 123.041 47.5523 123.24 48.1561C123.557 49.1173 123.089 50.303 122.219 50.7482C121.57 51.0802 120.646 51.0106 120.093 50.588L119.695 50.2839V51.3423C119.695 52.3974 119.694 52.4007 119.419 52.4007H119.142V49.6303ZM121.904 50.3227C122.705 49.9192 123.009 48.9616 122.606 48.1102C122.351 47.5709 121.872 47.3041 121.158 47.3036C120.655 47.3032 120.523 47.3521 120.185 47.6633C119.359 48.424 119.493 49.7856 120.443 50.2887C120.959 50.5616 121.409 50.5721 121.904 50.3227V50.3227ZM20.6596 51.5419C19.7127 50.9934 17.8703 49.7265 17.8798 49.6303C17.8829 49.5998 18.2434 49.3185 18.6812 49.0051C22.613 46.1906 25.6258 41.7114 26.7761 36.9704C28.7687 28.7575 25.6351 20.1043 18.8433 15.0645C18.3159 14.6732 17.9033 14.3223 17.9264 14.2847C18.0283 14.1195 19.7842 12.9256 20.6713 12.4184L21.6443 11.862L22.6251 12.8367C24.6751 14.8741 27.2652 16.1953 30.1393 16.6698C34.0856 17.3214 38.5762 15.6922 41.5684 12.5234L42.2121 11.8418L43.0057 12.3024C43.9503 12.8507 45.6683 14.0119 45.8377 14.2166C45.9311 14.3293 45.7172 14.5429 44.8785 15.1742C41.5128 17.7078 38.9148 21.3458 37.564 25.4171C35.4294 31.8502 36.4914 38.6818 40.5067 44.3474C41.3242 45.5008 43.7446 47.9519 44.96 48.857C45.4768 49.2418 45.9238 49.5767 45.9533 49.6011C46.0586 49.6882 43.9088 51.1805 42.7915 51.796L42.226 52.1074L41.2559 51.1416C39.0201 48.9156 36.2279 47.5827 32.9893 47.1952C30.3459 46.879 27.152 47.7681 24.5082 49.5562C24.0517 49.865 23.2255 50.5565 22.6723 51.0929C22.1191 51.6293 21.6444 52.0682 21.6175 52.0682C21.5906 52.0682 21.1595 51.8314 20.6596 51.5419V51.5419ZM23.8605 48.6637C25.0793 47.8461 25.7966 47.4627 26.9221 47.027C29.7562 45.9299 32.3656 45.7547 35.1872 46.4721C37.6767 47.1051 39.6881 48.204 41.7591 50.0626L42.4908 50.7193L43.2832 50.2213C43.719 49.9475 44.0755 49.6877 44.0755 49.6442C44.0755 49.6006 43.8385 49.3838 43.5487 49.1623C42.736 48.541 40.5422 46.2435 39.7919 45.2277C33.8294 37.1563 33.9213 26.4927 40.0227 18.4394C40.7397 17.4929 42.5184 15.6451 43.5173 14.8088L44.1199 14.3044L43.3321 13.7936C42.8988 13.5126 42.5105 13.2827 42.4691 13.2827C42.4277 13.2827 42.0309 13.6225 41.5873 14.0378C38.5682 16.8639 34.1544 18.3419 30.2918 17.8202C27.274 17.4126 24.6144 16.1428 22.1543 13.935L21.4043 13.262L20.6396 13.7173C20.2191 13.9677 19.8481 14.2162 19.8153 14.2694C19.7825 14.3227 19.9417 14.5074 20.1691 14.6798C20.9722 15.2889 22.7826 17.1191 23.6255 18.1741C29.3474 25.3365 30.0722 35.2751 25.4471 43.1524C24.0612 45.5126 22.0953 47.777 20.0315 49.3898C19.7595 49.6025 19.7303 49.6658 19.8657 49.7508C19.956 49.8075 20.3484 50.052 20.7376 50.2942L21.4455 50.7346L22.2467 49.9717C22.6874 49.5521 23.4136 48.9635 23.8605 48.6637ZM198.521 51.1817V50.8493H196.641H194.762V48.8546C194.762 46.9338 194.77 46.8599 194.983 46.8599C195.195 46.8599 195.204 46.9338 195.204 48.6329V50.406H196.42H197.636V48.6329C197.636 46.9338 197.646 46.8599 197.857 46.8599C198.069 46.8599 198.079 46.9338 198.079 48.6329V50.406H198.521H198.963V50.9601C198.963 51.4403 198.934 51.5142 198.742 51.5142C198.57 51.5142 198.521 51.4403 198.521 51.1817V51.1817ZM170.103 50.9261C169.566 50.7743 168.895 50.4 168.667 50.1242C168.552 49.9857 168.564 49.9291 168.733 49.8052C168.912 49.674 168.983 49.6882 169.281 49.916C170.708 51.0074 172.675 50.5041 173.149 48.9263L173.304 48.4113H171.982H170.661V48.1343V47.8572H171.932C173.162 47.8572 173.204 47.8493 173.204 47.6176C173.204 47.1608 172.693 46.4745 172.119 46.1617C171.198 45.6591 170.073 45.7709 169.276 46.4442C168.973 46.7008 168.921 46.7118 168.723 46.5634C168.512 46.4046 168.518 46.3886 168.93 46.0271C169.973 45.1134 171.681 45.0555 172.782 45.8967C174.141 46.936 174.232 49.0604 172.969 50.2619C172.272 50.9243 171.077 51.2012 170.103 50.9261V50.9261ZM87.0264 50.7855C85.9573 50.2267 85.5638 48.9949 86.0998 47.8849C86.7197 46.6015 88.5458 46.3814 89.5035 47.4747C90.7094 48.8514 89.7792 50.9592 87.9659 50.9588C87.6298 50.9588 87.2096 50.8812 87.0264 50.7855V50.7855ZM88.8045 50.2437C90.0628 49.4173 89.4895 47.3032 88.0072 47.3032C87.0114 47.3032 86.4192 47.9092 86.4185 48.9292C86.4182 49.3907 86.4763 49.5718 86.7166 49.8581C87.2673 50.5141 88.1458 50.6764 88.8045 50.2437ZM100.401 50.8056C99.9768 50.6203 99.3761 49.9388 99.2901 49.5451C99.2538 49.3787 99.2037 49.1772 99.1789 49.0974C99.1542 49.0177 99.186 48.7195 99.2496 48.4349C99.7392 46.2452 102.747 46.1963 103.323 48.3686C103.584 49.3539 103.015 50.4889 102.082 50.8422C101.66 51.002 100.808 50.9835 100.401 50.8056ZM102.209 50.1977C102.64 49.8896 102.943 49.1134 102.842 48.5734C102.801 48.3525 102.604 47.9936 102.405 47.7758C102.092 47.4332 101.962 47.3738 101.444 47.3353C100.5 47.2651 99.8803 47.7571 99.7393 48.6884C99.6498 49.2796 100.032 50.0314 100.569 50.3214C101.052 50.5823 101.743 50.5302 102.209 50.1977V50.1977ZM107.317 50.7992C107.024 50.4445 107.455 49.8996 107.838 50.1414C108.221 50.383 108.085 50.9601 107.645 50.9601C107.538 50.9601 107.391 50.8877 107.317 50.7992ZM127.959 50.737C127.182 50.3143 126.75 49.3148 126.929 48.3563C127.019 47.8757 127.675 47.1087 128.177 46.8984C128.881 46.6028 129.675 46.749 130.225 47.2755L130.53 47.5663V47.2131C130.53 46.9102 130.569 46.8599 130.806 46.8599H131.082V48.8546V50.8493H130.806C130.583 50.8493 130.53 50.7942 130.53 50.5666V50.2839L130.129 50.5899C129.589 51.003 128.574 51.0717 127.959 50.737V50.737ZM129.732 50.3057C130.268 50.0302 130.53 49.5659 130.529 48.8929C130.528 47.928 129.92 47.3032 128.982 47.3032C128.06 47.3032 127.435 47.9302 127.435 48.8546C127.435 50.1099 128.637 50.8693 129.732 50.3057V50.3057ZM136.002 50.7819C135.187 50.3367 134.814 49.7537 134.802 48.9078C134.779 47.3539 136.529 46.2842 137.992 46.9575C138.501 47.192 138.876 47.5681 138.77 47.7394C138.663 47.9127 138.503 47.8843 138.188 47.636C137.273 46.9142 135.874 47.2359 135.435 48.2692C135.227 48.7596 135.244 49.0358 135.52 49.6079C135.991 50.5825 137.415 50.8222 138.224 50.063C138.471 49.8311 138.821 49.8758 138.821 50.1392C138.821 50.2233 138.614 50.4293 138.361 50.5971C137.782 50.9811 136.544 51.0781 136.002 50.7819V50.7819ZM143.63 50.803C143.218 50.6187 142.742 50.1184 142.587 49.7062C142.397 49.2015 142.446 48.3376 142.693 47.853C143.328 46.605 145.167 46.4006 146.107 47.4736C146.412 47.8219 146.669 48.4541 146.669 48.8546C146.669 49.573 146.033 50.5354 145.377 50.8104C144.925 50.9998 144.062 50.9961 143.63 50.803V50.803ZM145.165 50.3631C146.228 49.918 146.409 48.442 145.499 47.6412C144.737 46.9709 143.549 47.2765 143.118 48.2535C142.756 49.0742 143.061 49.951 143.831 50.3015C144.386 50.5539 144.678 50.5674 145.165 50.3631ZM157.063 50.8359C156.157 50.475 155.6 49.3353 155.857 48.3686C156.247 46.8989 157.93 46.2744 159.056 47.1816L159.495 47.5352V47.1976C159.495 46.9338 159.543 46.8599 159.716 46.8599C159.929 46.8599 159.937 46.9338 159.937 48.8546C159.937 50.7754 159.929 50.8493 159.716 50.8493C159.554 50.8493 159.495 50.7754 159.495 50.5722C159.495 50.2558 159.366 50.2163 159.157 50.4687C158.783 50.9211 157.737 51.1045 157.063 50.8359V50.8359ZM158.603 50.3227C159.423 49.9035 159.726 48.9083 159.277 48.1075C158.956 47.5352 158.544 47.3032 157.851 47.3032C157.385 47.3032 157.227 47.3596 156.907 47.6412C155.483 48.8949 156.927 51.1792 158.603 50.3227V50.3227ZM164.07 50.8003C163.904 50.3671 164.309 49.9177 164.663 50.1414C165.081 50.405 164.901 50.9601 164.398 50.9601C164.251 50.9601 164.104 50.8882 164.07 50.8003V50.8003ZM188.071 50.8057C187.608 50.6033 187.055 49.9394 186.915 49.417C186.468 47.7529 188.173 46.2554 189.759 46.9196C190.284 47.1395 190.535 47.3727 190.794 47.8805C191.027 48.3377 191.071 49.2151 190.885 49.7062C190.725 50.1307 190.248 50.623 189.818 50.8075C189.373 50.9985 188.511 50.9975 188.071 50.8058V50.8057ZM189.679 50.2941C190.209 50.023 190.489 49.5244 190.491 48.8462C190.494 47.9365 189.823 47.3032 188.857 47.3032C187.636 47.3032 186.951 48.8164 187.696 49.8652C188.151 50.5059 188.933 50.6752 189.679 50.2941ZM79.1215 50.0736V49.2978H78.4546C78.0878 49.2978 77.6163 49.226 77.4067 49.1383C76.3183 48.6824 76.3052 46.8159 77.3874 46.3627C77.5863 46.2794 78.0578 46.1762 78.4352 46.1334C79.0991 46.0581 79.1215 46.0452 79.1215 45.7374C79.1215 45.472 79.1672 45.4193 79.3978 45.4193C79.6269 45.4193 79.6742 45.4725 79.6742 45.7297C79.6742 46.0314 79.6974 46.0434 80.5026 46.1597C81.7811 46.3443 82.2595 46.7801 82.2595 47.7599C82.2595 48.7477 81.5824 49.2974 80.3652 49.2977L79.6742 49.2978V50.0736C79.6742 50.8271 79.6663 50.8493 79.3978 50.8493C79.1294 50.8493 79.1215 50.8271 79.1215 50.0736H79.1215ZM79.1215 47.7464V46.6383L78.7069 46.639C77.6658 46.6403 77.1315 47.0161 77.1315 47.7464C77.1315 48.4841 77.5995 48.8222 78.6516 48.8446L79.1215 48.8546V47.7464ZM81.2908 48.5789C81.6456 48.3459 81.7991 47.927 81.6878 47.4962C81.5564 46.9881 81.1182 46.7163 80.3391 46.6598L79.6742 46.6116V47.6592C79.6742 48.2354 79.7116 48.7452 79.7572 48.7922C79.8896 48.9286 80.9918 48.7752 81.2908 48.5789V48.5789ZM94.3781 49.0762V47.3032H93.8253C93.3462 47.3032 93.2725 47.2736 93.2725 47.0815C93.2725 46.8722 93.3462 46.8599 94.5992 46.8599C95.8521 46.8599 95.9258 46.8722 95.9258 47.0815C95.9258 47.2736 95.8521 47.3032 95.373 47.3032H94.8203V49.0762C94.8203 50.7754 94.8111 50.8493 94.5992 50.8493C94.3873 50.8493 94.3781 50.7754 94.3781 49.0762V49.0762ZM111.956 48.1343V45.4193H112.233C112.507 45.4193 112.509 45.4267 112.509 46.4166C112.509 46.9652 112.539 47.414 112.576 47.414C112.612 47.414 113.116 46.9652 113.694 46.4166C114.566 45.5889 114.804 45.4201 115.092 45.4238C115.426 45.4281 115.39 45.4751 114.143 46.6704L112.847 47.9126L114.219 49.3532C115.552 50.7527 115.582 50.7948 115.267 50.8285C114.982 50.859 114.797 50.7123 113.73 49.6095L112.518 48.3559L112.514 49.6026L112.509 50.8493H112.233H111.956V48.1343H111.956ZM150.982 49.0762V47.3032H150.429C149.95 47.3032 149.877 47.2736 149.877 47.0815C149.877 46.8722 149.95 46.8599 151.203 46.8599C152.456 46.8599 152.53 46.8722 152.53 47.0815C152.53 47.2736 152.456 47.3032 151.977 47.3032H151.424V49.0762C151.424 50.7754 151.415 50.8493 151.203 50.8493C150.991 50.8493 150.982 50.7754 150.982 49.0762V49.0762ZM177.341 50.6553C177.921 48.831 178.604 46.921 178.687 46.8934C178.745 46.8739 179.115 47.5106 179.508 48.3083C179.902 49.106 180.276 49.8024 180.34 49.8559C180.416 49.9197 180.719 49.4212 181.222 48.4056C181.643 47.5545 182.035 46.874 182.093 46.8935C182.176 46.921 182.859 48.8324 183.439 50.6553C183.486 50.8057 183.437 50.8493 183.216 50.8493C183.06 50.8493 182.93 50.7869 182.926 50.7107C182.923 50.6346 182.707 49.9766 182.446 49.2486L181.972 47.925L181.222 49.3871C180.809 50.1913 180.434 50.8493 180.39 50.8493C180.345 50.8493 179.976 50.201 179.569 49.4087C179.162 48.6163 178.811 47.9681 178.788 47.9681C178.765 47.9681 178.533 48.6163 178.272 49.4087C177.844 50.7111 177.773 50.8493 177.539 50.8493C177.342 50.8493 177.294 50.8025 177.341 50.6553V50.6553ZM202.39 48.8546V46.8599H202.667H202.943V48.3267V49.7934L204.436 48.3005L205.928 46.8076V48.8284C205.928 50.7754 205.92 50.8493 205.707 50.8493C205.497 50.8493 205.486 50.7754 205.486 49.3825V47.9157L204.019 49.3825C203.213 50.1892 202.516 50.8493 202.472 50.8493C202.427 50.8493 202.39 49.9517 202.39 48.8546V48.8546ZM209.797 48.8546V46.8599H210.074H210.35V48.3005C210.35 49.0928 210.376 49.7411 210.407 49.7411C210.438 49.7411 211.108 49.0804 211.896 48.2728L213.327 46.8045L213.331 48.8269C213.335 50.7767 213.327 50.8493 213.114 50.8493C212.904 50.8493 212.893 50.7754 212.893 49.3825V47.9157L211.427 49.3825C210.62 50.1892 209.924 50.8493 209.879 50.8493C209.834 50.8493 209.797 49.9517 209.797 48.8546V48.8546ZM5.02883 49.2253C3.9539 47.5128 3.44132 46.5533 2.6996 44.8652C-0.736969 37.0441 -0.899188 28.1018 2.25131 20.1533C3.06986 18.0882 4.56387 15.279 5.60445 13.8484L5.95873 13.3614L7.09357 13.431C8.59124 13.5228 11.6829 14.1386 11.6829 14.345C11.6829 14.3721 11.3785 14.7782 11.0065 15.2475C8.03198 18.9994 6.13069 23.4151 5.41376 28.2364C5.14148 30.0674 5.14774 34.0246 5.42578 35.8337C5.68685 37.5325 6.24345 39.7499 6.76233 41.1583C7.69755 43.6968 9.39216 46.7092 11.0607 48.7992L11.6799 49.5749L10.7934 49.8169C9.67803 50.1213 8.16339 50.371 6.8608 50.4652L5.85279 50.538L5.02883 49.2253ZM8.68105 49.1306C9.1886 49.0482 9.62466 48.96 9.65009 48.9345C9.67552 48.909 9.2674 48.2448 8.74315 47.4585C6.4799 44.0638 4.96859 40.113 4.31745 35.8891C4.07266 34.3012 4.03579 30.0312 4.25382 28.5199C4.92683 23.855 6.30101 20.1877 8.76818 16.4726C9.5712 15.2634 9.74107 14.9408 9.59734 14.8978C9.16326 14.7681 7.91763 14.6027 7.20963 14.5809L6.4399 14.5571L5.74374 15.6653C3.4211 19.3625 1.86474 23.8433 1.27881 28.5199C1.07521 30.1449 1.10371 34.0847 1.33171 35.8337C1.78967 39.347 2.81898 42.7319 4.37368 45.8373C4.94928 46.987 6.05743 48.8838 6.34169 49.2058C6.52492 49.4134 7.04154 49.3968 8.68105 49.1306V49.1306ZM56.7894 50.4415C55.3164 50.3331 52.5036 49.804 52.2964 49.5963C52.2619 49.5617 52.5563 49.1189 52.9506 48.6122C55.7579 45.0045 57.539 40.9692 58.3462 36.3878C58.6431 34.7033 58.7563 31.0503 58.5682 29.2244C58.0572 24.2622 56.1078 19.4553 52.9374 15.3403C52.565 14.8568 52.2776 14.4438 52.2988 14.4225C52.32 14.4012 52.6709 14.2882 53.0785 14.1714C54.0999 13.8786 55.8765 13.6173 57.0588 13.586L58.0469 13.5598L58.5108 14.2247C59.7816 16.0462 61.2116 18.9258 62.086 21.4243C64.5817 28.5557 64.4375 36.6228 61.6888 43.6462C61.0488 45.2817 59.6917 47.9294 58.7494 49.381C57.933 50.6385 58.1166 50.5391 56.7894 50.4415V50.4415ZM58.0601 48.4027C61.0845 43.5018 62.5664 38.5379 62.722 32.7863C62.8147 29.3619 62.4444 26.4596 61.4985 23.1971C60.796 20.774 59.3208 17.5055 58.0091 15.4658L57.4532 14.6015L56.762 14.6691C55.855 14.7578 54.5699 14.9374 54.3422 15.0072C54.1982 15.0514 54.3675 15.3721 55.1752 16.5848C57.3597 19.8648 58.8797 23.7822 59.505 27.7442C59.743 29.2521 59.8375 33.2072 59.6735 34.7981C59.214 39.257 57.6511 43.6489 55.2235 47.3032C54.7174 48.065 54.2652 48.7471 54.2187 48.8188C54.1142 48.9798 54.9646 49.1706 56.3296 49.2924C56.8561 49.3393 57.3212 49.3847 57.3631 49.3932C57.405 49.4017 57.7187 48.956 58.0601 48.4027V48.4027ZM47.3161 46.9928C41.8874 43.2055 38.818 36.7918 39.4236 30.5012C39.9616 24.9142 42.7705 20.1111 47.3597 16.9311L48.2044 16.3458L48.7432 16.9332C49.861 18.1517 51.2453 20.1402 51.9602 21.5543L52.2477 22.1229L51.5111 22.6004C50.5954 23.194 49.303 24.4124 48.5822 25.3617C47.8759 26.2917 47.0279 28.0449 46.7061 29.2402C46.4867 30.0552 46.4534 30.436 46.4591 32.066C46.4651 33.7875 46.4914 34.0339 46.7642 34.925C47.1199 36.0868 47.6522 37.2311 48.2954 38.2163C48.9218 39.1758 50.4695 40.7072 51.4275 41.3152C51.8531 41.5853 52.22 41.8193 52.2427 41.8351C52.2655 41.8509 51.9534 42.4347 51.5491 43.1324C50.8059 44.4154 49.5591 46.1493 48.6936 47.1036L48.2214 47.6243L47.3161 46.9928ZM48.8642 45.17C49.511 44.3373 49.9012 43.7604 50.5752 42.6405L50.8137 42.2442L50.1065 41.7237C48.0816 40.2334 46.3897 37.7065 45.6727 35.1016C45.3158 33.8051 45.1868 31.4795 45.3983 30.1559C45.6636 28.4966 46.3665 26.6673 47.2489 25.3399C48.1469 23.9892 48.8905 23.2086 50.4741 21.9545C50.6667 21.802 50.7169 21.6833 50.6621 21.5101C50.5011 21.0015 48.2599 17.8529 48.0444 17.8325C47.862 17.8152 46.3317 19.0904 45.4022 20.0342C43.0235 22.4496 41.4031 25.5326 40.7649 28.8577C39.7487 34.1519 41.381 39.6949 45.1124 43.6204C46.1355 44.6968 47.7723 46.0842 48.0189 46.0842C48.0933 46.0842 48.4736 45.6728 48.8642 45.17V45.17ZM15.0939 46.9984C14.5049 46.364 13.4123 44.9268 12.8825 44.0895C12.3332 43.2214 11.6829 42.0378 11.6829 41.906C11.6829 41.8443 11.9762 41.6124 12.3346 41.3907C13.1679 40.8751 14.5484 39.5837 15.2278 38.6841C15.8674 37.8372 16.6581 36.3159 16.9686 35.3351C17.3774 34.0431 17.4815 33.316 17.4684 31.8444C17.4579 30.6787 17.4005 30.1923 17.1673 29.2956C16.4571 26.5642 14.5613 23.9461 12.3004 22.5743C11.9643 22.3703 11.6885 22.1535 11.6876 22.0926C11.6849 21.9119 12.5413 20.3881 13.1916 19.416C14.1499 17.9836 15.5473 16.3599 15.7536 16.4393C16.2886 16.6451 17.8895 17.95 19.1534 19.2106C21.8223 21.8725 23.3766 24.7623 24.1903 28.5753C24.5533 30.2762 24.5572 33.5229 24.1984 35.308C23.8398 37.0918 23.3914 38.3976 22.5718 40.0447C21.6322 41.933 20.6377 43.315 19.1427 44.8098C18.0347 45.9176 16.0098 47.5156 15.7057 47.5221C15.638 47.5235 15.3627 47.2879 15.0939 46.9984H15.0939ZM17.4213 44.9295C20.2431 42.5537 22.2325 39.1603 23.0945 35.2529C23.4432 33.6722 23.4437 30.3366 23.0955 28.7344C22.3806 25.4444 20.8929 22.5756 18.7203 20.2972C17.611 19.1339 15.952 17.771 15.7771 17.8793C15.4112 18.106 13.1202 21.3902 13.1202 21.6881C13.1202 21.742 13.3068 21.911 13.5348 22.0638C13.7628 22.2165 14.2839 22.6502 14.6928 23.0277C17.381 25.509 18.9532 29.6054 18.5559 33.093C18.3178 35.1824 17.6588 37.0597 16.595 38.6786C16.0676 39.4813 14.3624 41.285 13.5087 41.9432L13.0681 42.2829L13.4988 42.9923C14.0136 43.8403 14.5259 44.5684 15.2617 45.4982L15.8065 46.1866L16.1493 45.9492C16.3379 45.8187 16.9103 45.3598 17.4214 44.9295H17.4213ZM10.7551 39.7954C9.73421 37.0572 9.31018 34.4247 9.39407 31.3457C9.45379 29.1541 9.66883 27.6867 10.1979 25.8603C10.5445 24.6638 11.117 23.1452 11.2211 23.1458C11.3674 23.1464 12.0798 23.6237 12.7705 24.1834C15.0584 26.0374 16.472 29.0423 16.4448 31.9939C16.4196 34.7287 15.4629 37.0524 13.5624 38.9954C12.7994 39.7754 11.4201 40.8759 11.2054 40.8759C11.1793 40.8759 10.9766 40.3896 10.7551 39.7954V39.7954ZM13.2492 37.7282C13.9689 36.8747 14.6481 35.624 15.0003 34.504C15.3487 33.3962 15.4278 31.3518 15.1682 30.1691C14.7754 28.3797 13.9334 26.8753 12.5708 25.5279C11.678 24.6451 11.7152 24.6352 11.3451 25.8528C10.1542 29.7705 10.1795 34.4125 11.413 38.3267L11.6978 39.2301L12.1602 38.8506C12.4146 38.6419 12.9046 38.1368 13.2492 37.7282ZM52.0203 40.4707C49.8716 39.0022 48.3585 36.8906 47.705 34.4485C47.3526 33.1314 47.353 30.8139 47.7061 29.5172C48.0041 28.4222 48.6825 26.9807 49.3191 26.0899C50.2326 24.8115 52.4336 22.9458 52.7061 23.2189C52.8758 23.389 53.5473 25.3439 53.8502 26.5499C54.6626 29.7836 54.7409 33.1153 54.0815 36.3878C53.7717 37.9252 52.8336 40.8759 52.6546 40.8759C52.6319 40.8759 52.3465 40.6935 52.0204 40.4707H52.0203ZM52.5282 38.0836C53.4725 34.9562 53.6756 31.3202 53.0818 28.1755C52.8255 26.818 52.2449 24.8076 52.1092 24.8076C52.042 24.8076 51.6083 25.194 51.1454 25.6664C49.3311 27.5179 48.373 30.0243 48.5323 32.5025C48.6825 34.8398 49.7683 37.0837 51.5211 38.6795C51.8344 38.9647 52.1237 39.1642 52.164 39.1227C52.2043 39.0813 52.3682 38.6137 52.5282 38.0836ZM165.281 37.6089C161.014 36.8328 157.73 33.8687 156.439 29.6281C156.159 28.7082 156.135 28.4801 156.129 26.6914C156.124 24.9949 156.155 24.6343 156.38 23.8102C157.251 20.6123 159.363 18.0457 162.314 16.599C164.103 15.7223 164.831 15.5676 167.178 15.5663C169.037 15.5653 169.234 15.5854 170.163 15.8705C173.453 16.8794 175.795 18.8966 177.249 21.973C178.882 25.4288 178.545 29.6122 176.374 32.8417C175.827 33.6563 174.685 34.865 173.859 35.5051C171.534 37.3066 168.163 38.1332 165.281 37.6089V37.6089ZM169.22 36.6103C171.242 36.1838 172.822 35.3027 174.365 33.7399C175.938 32.1464 176.816 30.4827 177.185 28.3969C177.362 27.3923 177.269 24.8921 177.02 23.9765C176.744 22.9611 175.836 21.1778 175.145 20.2923C172.255 16.5901 167.123 15.3747 162.848 17.38C161.691 17.9225 161.061 18.3568 160.118 19.26C156.212 23.0038 155.917 29.1083 159.44 33.271C160.794 34.8701 162.936 36.1544 164.986 36.5952C165.994 36.812 168.225 36.82 169.22 36.6103V36.6103ZM129.977 37.5019C129.036 37.2991 128.472 37.0901 127.538 36.5983L126.771 36.1941V35.5852V34.9763L127.157 35.2717C127.691 35.6796 129.015 36.2914 129.807 36.4951C130.169 36.5885 130.917 36.6649 131.469 36.6649C133.172 36.6649 134.505 36.1813 135.598 35.1671C136.799 34.0523 137.193 32.658 136.734 31.1446C136.299 29.7079 135.611 29.061 132.354 27.0257C129.845 25.4584 129.04 24.8594 128.135 23.8895C126.615 22.2591 126.219 20.4555 127.008 18.7516C127.391 17.9242 128.581 16.7924 129.551 16.3331C130.82 15.7323 131.597 15.5756 133.015 15.6345C134.383 15.6914 135.403 15.9843 136.454 16.6228L137.052 16.9865V17.5726C137.052 17.8949 137.022 18.1586 136.985 18.1586C136.948 18.1586 136.767 18.0309 136.582 17.8749C135.199 16.7089 132.692 16.2733 130.811 16.8723C128.173 17.7119 127.016 19.8773 128.025 22.0864C128.612 23.3726 129.464 24.0677 134.031 26.9893C135.644 28.0213 136.544 28.783 137.044 29.5392C138.039 31.0451 138.087 33.4387 137.15 34.813C135.988 36.5173 134.079 37.5186 131.816 37.611C131.103 37.64 130.434 37.6003 129.977 37.5019V37.5019ZM77.2104 37.2611C77.167 37.2176 77.1315 32.4002 77.1315 26.5558V15.9296L77.5945 15.9637L78.0575 15.9977L82.6269 25.4691C85.1401 30.6784 87.2375 34.9817 87.2877 35.032C87.3379 35.0824 89.4617 30.8078 92.0073 25.5329L96.6357 15.9423H97.1099H97.5841V26.4607C97.5841 32.2459 97.554 37.0581 97.517 37.1545C97.4741 37.2666 97.3149 37.3298 97.0748 37.3298C96.8685 37.3298 96.688 37.3173 96.6736 37.302C96.6593 37.2868 96.622 33.0233 96.5907 27.8275L96.5339 18.3807L91.9537 27.8021C89.4346 32.9839 87.3396 37.1851 87.2981 37.1381C87.2567 37.0912 85.1637 32.8234 82.647 27.6543L78.0712 18.2558L78.0159 27.7651L77.9606 37.2743L77.625 37.3073C77.4404 37.3254 77.2538 37.3045 77.2104 37.2611V37.2611ZM109.856 32.2987V27.2677L106.373 21.6467C104.458 18.5551 102.891 16.0043 102.891 15.9782C102.891 15.9521 103.146 15.9458 103.459 15.9642L104.027 15.9977L107.112 20.9844C108.809 23.7271 110.244 25.9711 110.301 25.9711C110.358 25.9711 111.794 23.7271 113.492 20.9844L116.579 15.9977L117.142 15.9642C117.452 15.9458 117.705 15.9543 117.705 15.983C117.705 16.0117 116.138 18.5659 114.223 21.659L110.74 27.2826V32.3062V37.3297H110.298H109.856V32.2987ZM147.18 37.1545C147.143 37.0581 147.113 32.4461 147.113 26.9058V16.8324L144.045 16.8029L140.977 16.7734V16.3856V15.9977H147.61H154.244V16.3856V16.7734L151.12 16.8029L147.997 16.8323V27.081V37.3297H147.622C147.382 37.3297 147.223 37.2666 147.18 37.1544V37.1545ZM183.76 37.1983C183.73 37.1182 183.718 32.3153 183.733 26.5252L183.762 15.9977L186.571 15.9681C189.734 15.9347 190.142 15.9931 191.556 16.68C192.185 16.9858 192.599 17.2994 193.271 17.9809C194.702 19.4308 195.356 20.93 195.356 22.7575C195.356 24.5982 194.697 26.1074 193.276 27.523C191.703 29.0896 190.713 29.4648 187.899 29.5614L185.956 29.6281L190.644 33.3958C193.222 35.468 195.355 37.2009 195.385 37.2466C195.414 37.2923 195.144 37.3298 194.784 37.3298H194.13L189.388 33.4644L184.646 29.599L184.591 33.4367L184.536 37.2743L184.176 37.3091C183.953 37.3306 183.794 37.2883 183.76 37.1983V37.1983ZM189.828 28.519C190.971 28.2206 191.666 27.8061 192.609 26.8607C193.876 25.5898 194.426 24.3659 194.429 22.8085C194.432 21.2339 193.825 19.8707 192.555 18.5994C191.056 17.0995 190.19 16.8288 186.889 16.8288H184.591V22.7575V28.6861H186.889C188.581 28.6861 189.357 28.642 189.828 28.519V28.519ZM206.149 32.3505V27.3578L203.148 22.5089C201.497 19.842 199.904 17.2735 199.609 16.8011L199.072 15.9423L199.653 15.9434L200.234 15.9444L203.054 20.4984C204.604 23.0031 206.024 25.2962 206.209 25.5943L206.545 26.1363L209.691 21.0414L212.838 15.9466L213.419 15.9445L214 15.9425L213.298 17.0783C212.913 17.703 211.358 20.2089 209.843 22.6468L207.089 27.0794L207.034 32.177L206.978 37.2745L206.564 37.3089L206.149 37.3433V32.3504V32.3505ZM30.422 15.2113C28.6214 14.8916 27.0779 14.2957 25.6464 13.3675C24.693 12.7493 23.0274 11.2854 23.1466 11.1704C23.1958 11.123 23.9076 10.8581 24.7284 10.5816C27.2171 9.74354 29.2936 9.4042 31.9336 9.4042C33.8796 9.4042 35.6073 9.61514 37.4325 10.0756C38.618 10.3746 39.112 10.5348 40.4736 11.0612L40.7963 11.186L40.3078 11.6895C38.58 13.4699 35.9632 14.7921 33.3154 15.2225C32.0991 15.4202 31.5876 15.4183 30.422 15.2113V15.2113ZM33.8976 13.9839C34.9043 13.7824 35.938 13.4001 36.8895 12.8775C37.7125 12.4255 38.6584 11.7548 38.6584 11.6232C38.6584 11.5164 37.3021 11.1406 35.7482 10.8167C34.1976 10.4936 29.9778 10.4642 28.3767 10.7653C26.9932 11.0256 25.1706 11.5179 25.1706 11.6313C25.1706 11.8179 27.2303 13.0719 28.0695 13.3963C30.289 14.2543 31.7906 14.4057 33.8976 13.9839V13.9839ZM49.1058 11.3892C47.9425 10.3896 45.5463 8.81343 44.0359 8.05439C40.1014 6.07711 36.3877 5.1932 32.015 5.1932C30.9213 5.1932 29.5433 5.24575 28.9528 5.30996C24.016 5.84689 18.8939 8.00344 15.0475 11.1644C14.5197 11.5981 14.0494 11.953 14.0024 11.953C13.9553 11.953 13.3271 11.7562 12.6064 11.5157C11.4677 11.1357 10.2521 10.8449 8.65341 10.5701L8.22192 10.496L9.09563 9.60469C13.973 4.62937 20.3474 1.36329 27.2262 0.315093C29.1706 0.0188095 32.7575 -0.092065 34.6784 0.0847345C41.1583 0.681141 47.0065 3.04808 52.0355 7.10964C53.3711 8.18829 55.7111 10.4893 55.621 10.6353C55.5876 10.6896 55.4326 10.734 55.2766 10.734C54.7242 10.734 52.2392 11.295 51.1011 11.6767C50.4663 11.8896 49.9317 12.0616 49.9133 12.059C49.8948 12.0562 49.5314 11.755 49.1058 11.3892V11.3892ZM52.2912 10.1856L53.4865 9.87873L52.6228 9.07661C48.4793 5.22853 42.7949 2.46768 37 1.48876C34.3086 1.0341 30.1487 0.981902 27.6029 1.37085C22.3469 2.17385 17.4183 4.22359 13.3965 7.27911C12.4866 7.97044 10.5774 9.63064 10.5774 9.73059C10.5774 9.77547 10.8559 9.87467 11.1963 9.95102C11.5367 10.0274 12.2647 10.2311 12.8141 10.4038L13.813 10.7177L14.9314 9.85271C17.0948 8.17958 19.8697 6.64475 22.4596 5.6887C23.7656 5.20658 26.1132 4.60401 27.6581 4.35433C29.1371 4.11532 33.2045 4.0203 34.8158 4.18711C37.0906 4.42262 39.5304 4.99676 41.7419 5.81691C44.1714 6.71793 47.3249 8.52563 49.4192 10.2178L50.1749 10.8283L50.6353 10.6604C50.8886 10.568 51.6337 10.3543 52.2912 10.1856V10.1856Z" fill="#C49E60"/>
</g>
<defs>
<clipPath id="clip0">
<rect width="214" height="64" fill="white"/>
</clipPath>
</defs>
</svg>
