<svg>
  <symbol id="viber" width="24" height="24" viewBox="0 0 24 24" xmlns="http://www.w3.org/2000/svg">
    <path d="M12 0C5.3736 0 0 5.3736 0 12C0 18.6264 5.3736 24 12 24C18.6264 24 24 18.6264 24 12C24 5.3736 18.6264 0 12 0ZM12.2543 18.9868C12.2542 18.9868 12.2545 18.9868 12.2543 18.9868H12.2514C11.0493 18.9862 9.8681 18.6848 8.81909 18.1128L5.01178 19.1113L6.03076 15.3906C5.40216 14.3018 5.07147 13.0666 5.07202 11.8011C5.07367 7.84241 8.29559 4.62177 12.2543 4.62177C14.1755 4.6225 15.9789 5.3703 17.3348 6.72729C18.6909 8.08447 19.4372 9.88843 19.4365 11.8068C19.4348 15.7657 16.2125 18.9868 12.2543 18.9868Z"/>
    <path d="M12.2568 5.83447C8.96405 5.83447 6.28613 8.51129 6.28467 11.8017C6.2843 12.9293 6.59998 14.0273 7.19745 14.9775L7.33936 15.2032L6.73621 17.4055L8.99555 16.8129L9.21363 16.9422C10.1301 17.486 11.1807 17.7737 12.2519 17.774H12.2543C15.5445 17.774 18.2224 15.097 18.2239 11.8065C18.2244 10.2118 17.6041 8.71252 16.4771 7.58459C15.35 6.45667 13.8511 5.83502 12.2568 5.83447ZM15.7681 14.3674C15.6185 14.7863 14.9016 15.1688 14.5568 15.2205C14.2476 15.2666 13.8565 15.2858 13.4265 15.1494C13.1658 15.0667 12.8316 14.9562 12.4033 14.7715C10.6032 13.9944 9.42749 12.1824 9.33777 12.0626C9.24805 11.9429 8.60498 11.0898 8.60498 10.2067C8.60498 9.32373 9.06861 8.88959 9.23304 8.71014C9.39765 8.53052 9.59211 8.48566 9.71167 8.48566C9.83124 8.48566 9.95099 8.48676 10.0555 8.49188C10.1658 8.49738 10.3137 8.44995 10.4593 8.79987C10.6089 9.15912 10.9678 10.0421 11.0126 10.1318C11.0575 10.2217 11.0873 10.3264 11.0277 10.4462C10.9678 10.5659 10.7689 10.8243 10.579 11.0598C10.4994 11.1584 10.3956 11.2463 10.5003 11.426C10.6049 11.6054 10.9652 12.193 11.4986 12.6687C12.1842 13.2799 12.7624 13.4692 12.9418 13.5591C13.1211 13.6489 13.2258 13.6339 13.3306 13.5143C13.4351 13.3945 13.7792 12.9904 13.8988 12.8108C14.0183 12.6312 14.1381 12.6612 14.3025 12.7211C14.4671 12.7808 15.3493 13.2149 15.5288 13.3046C15.7082 13.3945 15.8278 13.4394 15.8726 13.5143C15.9177 13.5892 15.9177 13.9482 15.7681 14.3674Z"/>
  </symbol>
  <symbol id="instagram" width="24" height="24" viewBox="0 0 24 24" xmlns="http://www.w3.org/2000/svg">
    <path d="M14.2969 12C14.2969 13.2686 13.2686 14.2969 12 14.2969C10.7314 14.2969 9.70312 13.2686 9.70312 12C9.70312 10.7314 10.7314 9.70312 12 9.70312C13.2686 9.70312 14.2969 10.7314 14.2969 12Z"/>
    <path d="M17.3713 7.93616C17.2609 7.63696 17.0848 7.36615 16.8559 7.14386C16.6336 6.91498 16.363 6.73883 16.0636 6.62842C15.8208 6.53412 15.4561 6.42188 14.7842 6.3913C14.0575 6.35815 13.8396 6.35101 11.9998 6.35101C10.1597 6.35101 9.94183 6.35797 9.21527 6.39111C8.54346 6.42188 8.17853 6.53412 7.93591 6.62842C7.63654 6.73883 7.36572 6.91498 7.14362 7.14386C6.91473 7.36615 6.73859 7.63678 6.62799 7.93616C6.53369 8.17896 6.42145 8.54388 6.39087 9.2157C6.35773 9.94226 6.35059 10.1602 6.35059 12.0002C6.35059 13.84 6.35773 14.0579 6.39087 14.7847C6.42145 15.4565 6.53369 15.8212 6.62799 16.064C6.73859 16.3634 6.91455 16.634 7.14343 16.8563C7.36572 17.0852 7.63635 17.2614 7.93573 17.3718C8.17853 17.4662 8.54346 17.5785 9.21527 17.6091C9.94183 17.6422 10.1595 17.6492 11.9996 17.6492C13.8398 17.6492 14.0577 17.6422 14.7841 17.6091C15.4559 17.5785 15.8208 17.4662 16.0636 17.3718C16.6646 17.14 17.1395 16.665 17.3713 16.064C17.4656 15.8212 17.5779 15.4565 17.6086 14.7847C17.6418 14.0579 17.6487 13.84 17.6487 12.0002C17.6487 10.1602 17.6418 9.94226 17.6086 9.2157C17.5781 8.54388 17.4658 8.17896 17.3713 7.93616ZM11.9998 15.5383C10.0455 15.5383 8.46124 13.9543 8.46124 12C8.46124 10.0457 10.0455 8.46167 11.9998 8.46167C13.9539 8.46167 15.5381 10.0457 15.5381 12C15.5381 13.9543 13.9539 15.5383 11.9998 15.5383ZM15.678 9.14868C15.2213 9.14868 14.8511 8.77844 14.8511 8.32178C14.8511 7.86511 15.2213 7.49487 15.678 7.49487C16.1346 7.49487 16.5049 7.86511 16.5049 8.32178C16.5047 8.77844 16.1346 9.14868 15.678 9.14868Z"/>
    <path d="M12 0C5.3736 0 0 5.3736 0 12C0 18.6264 5.3736 24 12 24C18.6264 24 24 18.6264 24 12C24 5.3736 18.6264 0 12 0ZM18.8491 14.8409C18.8157 15.5744 18.6991 16.0752 18.5288 16.5135C18.1708 17.4391 17.4391 18.1708 16.5135 18.5288C16.0754 18.6991 15.5744 18.8156 14.8411 18.8491C14.1063 18.8826 13.8715 18.8906 12.0002 18.8906C10.1287 18.8906 9.8941 18.8826 9.15912 18.8491C8.42578 18.8156 7.9248 18.6991 7.48663 18.5288C7.02667 18.3558 6.61029 18.0846 6.26605 17.7339C5.91559 17.3899 5.64441 16.9733 5.47137 16.5135C5.30109 16.0754 5.18445 15.5744 5.15112 14.8411C5.11725 14.1061 5.10938 13.8713 5.10938 12C5.10938 10.1287 5.11725 9.89392 5.15094 9.15912C5.18427 8.4256 5.30072 7.9248 5.47101 7.48645C5.64404 7.02667 5.91541 6.61011 6.26605 6.26605C6.61011 5.91541 7.02667 5.64423 7.48645 5.47119C7.9248 5.3009 8.4256 5.18445 9.15912 5.15094C9.89392 5.11743 10.1287 5.10938 12 5.10938C13.8713 5.10938 14.1061 5.11743 14.8409 5.15112C15.5744 5.18445 16.0752 5.3009 16.5135 5.47101C16.9733 5.64404 17.3899 5.91541 17.7341 6.26605C18.0846 6.61029 18.356 7.02667 18.5288 7.48645C18.6993 7.9248 18.8157 8.4256 18.8492 9.15912C18.8828 9.89392 18.8906 10.1287 18.8906 12C18.8906 13.8713 18.8828 14.1061 18.8491 14.8409Z"/>
  </symbol>
  <symbol id="phone" width="24" height="24" viewBox="0 0 24 24" xmlns="http://www.w3.org/2000/svg">
    <path d="M12 0C5.373 0 0 5.373 0 12C0 18.627 5.373 24 12 24C18.627 24 24 18.627 24 12C24 5.373 18.627 0 12 0ZM18 18.75C10.9695 18.75 5.25 13.0305 5.25 6C5.25 5.586 5.586 5.25 6 5.25H8.769C9.183 5.25 9.519 5.586 9.519 6C9.519 7.296 9.801 8.5305 10.3575 9.6675C10.446 9.8475 10.458 10.053 10.392 10.242C10.3275 10.431 10.1895 10.5855 10.0095 10.6725L8.8905 11.2125C9.822 12.834 11.166 14.1795 12.786 15.108L13.326 13.9905C13.413 13.8105 13.5675 13.674 13.7565 13.608C13.9455 13.5435 14.1525 13.5555 14.331 13.6425C15.471 14.199 16.704 14.481 17.9985 14.481C18.4125 14.481 18.7485 14.817 18.7485 15.231V18H18.75C18.75 18.414 18.414 18.75 18 18.75Z"/>
  </symbol>
	<symbol id="arrow" width="51" height="8" viewBox="0 0 51 8" xmlns="http://www.w3.org/2000/svg">
    <path d="M50.3536 4.35355C50.5488 4.15829 50.5488 3.84171 50.3536 3.64645L47.1716 0.464466C46.9763 0.269204 46.6597 0.269204 46.4645 0.464466C46.2692 0.659728 46.2692 0.976311 46.4645 1.17157L49.2929 4L46.4645 6.82843C46.2692 7.02369 46.2692 7.34027 46.4645 7.53553C46.6597 7.7308 46.9763 7.7308 47.1716 7.53553L50.3536 4.35355ZM0 4.5H50V3.5H0V4.5Z"/>
	</symbol>
  <symbol id="line" width="1" height="48" viewBox="0 0 1 48" xmlns="http://www.w3.org/2000/svg">
    <line opacity="0.3" x1="0.5" y1="0.5" x2="0.5" y2="47.5" stroke="white" stroke-linecap="round"/>
	</symbol>
	<symbol id="manicure" width="53" height="56" viewBox="0 0 53 56" fill="none" xmlns="http://www.w3.org/2000/svg">
		<g><path fill-rule="evenodd" clip-rule="evenodd" d="M34.0475 42.7546C32.7602 43.6304 30.5691 43.7282 29.8417 42.4705C29.5111 41.8952 29.4207 41.0404 29.4119 40.4908C33.6 36.9553 34.8675 35.7674 37.3473 34.1441C40.6361 31.985 41.6369 32.2343 41.8044 32.3065C41.8573 32.3297 41.9719 32.3787 42.0248 32.7397C42.2938 34.9988 35.6985 41.6343 34.0629 42.7546H34.0475ZM29.5596 33.5921C27.9835 34.8195 25.7483 34.5982 25.0937 33.4291C24.7829 32.8701 24.6749 32.0549 24.6682 31.4098C28.0077 28.5706 30.0864 26.6887 32.6764 24.9792C35.9983 22.7852 37.0123 23.0391 37.1798 23.116C37.2371 23.1393 37.3562 23.1905 37.4002 23.5678C37.6692 25.827 31.3406 32.2086 29.5596 33.5921ZM23.4162 30.3663L1.54302 48.8707V41.0591C1.54182 40.5123 1.65758 39.9724 1.88164 39.4795C2.1057 38.9867 2.43226 38.5537 2.83694 38.213L13.8584 28.8594C14.1472 30.4548 14.8944 31.291 15.9922 31.7405C17.1256 32.1815 18.3728 32.1674 19.497 31.7009C21.17 31.0231 24.0753 27.8812 25.2744 26.4978C25.5874 29.0458 23.5859 30.1474 23.4162 30.3663ZM22.8563 21.5834C25.9732 19.5269 26.9122 19.7575 27.0687 19.825C27.1106 19.8436 27.2098 19.8856 27.2495 20.214C27.4964 22.3101 21.3618 28.5986 19.6865 29.7631C18.2538 30.7413 16.3999 30.4898 15.8004 29.628C15.3595 29.0015 15.3595 28.0722 15.3176 27.6297C18.5888 24.8698 20.4074 23.2021 22.8563 21.5834ZM43.5502 32.53C43.4224 31.4447 42.8448 30.9789 42.3841 30.7809C41.681 30.4781 40.3716 30.3337 37.0938 32.3763C37.3982 31.0481 37.2597 29.6497 36.7015 28.4169C37.8301 26.9286 39.1262 24.8814 38.9366 23.3605C38.8066 22.2612 38.2268 21.7931 37.7617 21.5928C35.1166 20.4538 29.0834 25.5685 26.8439 27.4597C26.9186 26.6266 26.8077 25.7867 26.5199 25.0072C27.622 23.5841 28.9644 21.5299 28.7859 20.0137C28.6536 18.898 28.0166 18.4648 27.6484 18.3065C26.1495 17.6636 23.716 19.0797 22.0187 20.2023C19.4639 21.8932 19.53 21.9631 1.87366 36.932C1.28767 37.4267 0.814867 38.0547 0.490463 38.7693C0.166058 39.4839 -0.00158795 40.2665 1.13357e-05 41.0591V52.7486C1.13357e-05 53.6134 0.325143 54.4428 0.903882 55.0543C1.48262 55.6658 2.26756 56.0093 3.08602 56.0093H4.75026C4.8585 56.0216 4.96797 56.0096 5.07156 55.9742C5.17514 55.9388 5.27051 55.8808 5.35148 55.8039C5.43246 55.7271 5.49721 55.633 5.54153 55.528C5.58586 55.4229 5.60877 55.3092 5.60877 55.1942C5.60877 55.0791 5.58586 54.9654 5.54153 54.8603C5.49721 54.7553 5.43246 54.6613 5.35148 54.5844C5.27051 54.5075 5.17514 54.4495 5.07156 54.4141C4.96797 54.3787 4.8585 54.3667 4.75026 54.379H3.08602C2.8829 54.3808 2.68146 54.3399 2.49346 54.2587C2.30546 54.1774 2.13465 54.0574 1.99102 53.9056C1.84739 53.7539 1.7338 53.5734 1.65688 53.3747C1.57996 53.1761 1.54125 52.9633 1.54302 52.7486V51.0065L23.209 32.6372C23.8703 36.5966 28.0584 36.7783 30.4589 34.922C31.9622 33.7575 34.1489 31.4726 35.5486 29.8307C35.761 30.6418 35.7442 31.501 35.5002 32.3022C35.2562 33.1034 34.7957 33.8117 34.1754 34.3397L10.5586 54.3697H8.37632C8.26808 54.3574 8.15861 54.3694 8.05503 54.4048C7.95144 54.4402 7.85607 54.4982 7.7751 54.5751C7.69413 54.6519 7.62938 54.746 7.58505 54.851C7.54072 54.9561 7.51782 55.0698 7.51782 55.1848C7.51782 55.2999 7.54072 55.4136 7.58505 55.5187C7.62938 55.6237 7.69413 55.7177 7.7751 55.7946C7.85607 55.8715 7.95144 55.9295 8.05503 55.9649C8.15861 56.0003 8.26808 56.0123 8.37632 56H24.827C26.2693 55.9995 27.6686 55.4804 28.7947 54.528L34.2415 49.9095C34.3211 49.8421 34.3873 49.7587 34.4365 49.6642C34.4856 49.5697 34.5166 49.4659 34.5278 49.3588C34.5389 49.2516 34.53 49.1432 34.5015 49.0397C34.473 48.9361 34.4254 48.8396 34.3616 48.7555C34.2978 48.6714 34.2189 48.6013 34.1295 48.5494C34.04 48.4975 33.9418 48.4648 33.8404 48.453C33.739 48.4412 33.6363 48.4506 33.5384 48.4808C33.4404 48.5109 33.349 48.5611 33.2694 48.6285L27.8226 53.2471C26.9731 53.9659 25.9176 54.3585 24.8292 54.3603H13.056L27.9659 41.7182C28.0618 42.3592 28.2874 42.9709 28.6272 43.5116C29.7954 45.2677 32.5288 45.4936 34.4994 44.3757C35.6897 43.7002 37.9293 41.4108 38.8661 40.4162C39.0826 41.2545 39.0637 42.1412 38.8116 42.9683C38.5596 43.7954 38.0853 44.5271 37.4465 45.0744L36.0777 46.2389C35.9219 46.3771 35.8238 46.5744 35.8043 46.7883C35.7849 47.0022 35.8457 47.2157 35.9737 47.3827C36.1017 47.5497 36.2867 47.6569 36.4887 47.6812C36.6908 47.7056 36.8939 47.6451 37.0542 47.5129L38.423 46.3484C39.4169 45.497 40.1164 44.3223 40.4127 43.0071C40.7089 41.6919 40.5852 40.3102 40.0608 39.077C40.9998 37.9917 43.8103 34.717 43.5502 32.5347V32.53Z" fill="#C49F60"/><path fill-rule="evenodd" clip-rule="evenodd" d="M46.5106 10.7533L47.8993 11.1795V17.0767C47.8893 17.265 47.8114 17.4422 47.6817 17.5718C47.5519 17.7013 47.3802 17.7736 47.2016 17.7736C47.0231 17.7736 46.8513 17.7013 46.7216 17.5718C46.5919 17.4422 46.514 17.265 46.504 17.0767L46.5106 10.7533ZM45.21 29.3858C45.1806 29.4502 45.1374 29.5065 45.084 29.5504C45.0306 29.5943 44.9684 29.6247 44.9021 29.6391C44.8358 29.6535 44.7673 29.6516 44.7018 29.6335C44.6363 29.6154 44.5757 29.5817 44.5245 29.5349L42.9242 28.1374C42.9211 28.133 42.9195 28.1277 42.9195 28.1223C42.9195 28.1168 42.9211 28.1115 42.9242 28.1071C45.3269 25.9877 46.5018 22.706 46.8412 19.4174C47.0153 19.4476 47.192 19.457 47.3681 19.4453C47.1322 24.5926 45.9331 27.8509 45.2034 29.3881L45.21 29.3858ZM52.2241 4.42522C52.4301 4.4246 52.6274 4.33771 52.7729 4.18359C52.9183 4.02948 53 3.82071 53 3.60306V2.20562C52.9994 1.62205 52.7802 1.06245 52.3903 0.649153C52.0004 0.235852 51.4715 0.00246201 50.9192 0H43.7111C43.1583 0.000616529 42.6282 0.232947 42.2373 0.646011C41.8463 1.05907 41.6264 1.61913 41.6259 2.20329V7.41574C41.6277 7.95325 41.7943 8.47566 42.1007 8.90477C42.407 9.33387 42.8367 9.64657 43.3254 9.79604L44.9566 10.2875V17.0767C44.9558 17.5566 45.0934 18.0254 45.3511 18.4206C45.2453 20.3444 44.6898 24.4156 41.919 26.8518C41.7416 27.009 41.5991 27.2057 41.5019 27.4278C41.4047 27.6499 41.355 27.8919 41.3565 28.1366C41.358 28.3813 41.4105 28.6226 41.5104 28.8434C41.6103 29.0642 41.7551 29.2589 41.9345 29.4137C43.2703 30.4525 43.6979 31.291 44.8001 31.291C45.1714 31.2919 45.5356 31.1834 45.8517 30.9776C46.1679 30.7719 46.4235 30.4772 46.5899 30.1264C47.4188 28.3773 48.8119 24.5786 48.9287 18.5976C49.2659 18.1719 49.4502 17.6341 49.4489 17.079V11.6453C49.8104 11.6733 50.9765 12.4512 52.1448 11.5195C52.4108 11.3093 52.6266 11.036 52.7747 10.7218C52.9229 10.4075 52.9993 10.0609 52.9978 9.70986V7.43204C52.9774 7.23087 52.8874 7.04476 52.7449 6.90953C52.6025 6.77429 52.4178 6.69948 52.2263 6.69948C52.0348 6.69948 51.8501 6.77429 51.7077 6.90953C51.5653 7.04476 51.4752 7.23087 51.4548 7.43204V9.70754C51.4552 9.80467 51.4341 9.90055 51.3932 9.98751C51.3522 10.0745 51.2925 10.1501 51.219 10.2083C50.8244 10.5227 50.5466 10.192 48.8956 9.76576L43.753 8.21694C43.5884 8.16665 43.4437 8.06144 43.3404 7.91703C43.2371 7.77262 43.1808 7.59676 43.1799 7.41574V2.20329C43.1793 2.05394 43.2341 1.91029 43.3326 1.80317C43.4311 1.69605 43.5654 1.634 43.7067 1.63034H50.9192C51.0601 1.63216 51.1948 1.69212 51.2945 1.79743C51.3941 1.90274 51.4509 2.04506 51.4526 2.19398V3.59142C51.4509 3.69986 51.4695 3.80759 51.5074 3.90837C51.5454 4.00915 51.6018 4.10097 51.6736 4.17852C51.7453 4.25608 51.831 4.31781 51.9255 4.36016C52.02 4.40251 52.1215 4.42462 52.2241 4.42522Z" fill="#C49F60"/></g>
	</symbol>
  <symbol id="brow" width="53" height="56" viewBox="0 0 53 56" fill="none" xmlns="http://www.w3.org/2000/svg">
		<g><path fill-rule="evenodd" clip-rule="evenodd" d="M50.0058 15.7368L46.5615 23.125H46.1041L46.9389 17.8346C46.9729 17.5537 46.9026 17.2699 46.7428 17.0426C46.583 16.8153 46.346 16.6623 46.0817 16.6157C45.8174 16.5691 45.5463 16.6325 45.3253 16.7927C45.1043 16.9528 44.9507 17.1972 44.8965 17.4745L44.0069 23.125H42.8451V17.6558C42.8618 17.5024 42.8477 17.347 42.8037 17.1998C42.7596 17.0526 42.6866 16.9169 42.5894 16.8016C42.4922 16.6864 42.3731 16.5941 42.2397 16.531C42.1064 16.4678 41.962 16.4351 41.8159 16.4351C41.6698 16.4351 41.5253 16.4678 41.392 16.531C41.2587 16.5941 41.1396 16.6864 41.0424 16.8016C40.9452 16.9169 40.8721 17.0526 40.8281 17.1998C40.784 17.347 40.7699 17.5024 40.7867 17.6558V23.125H39.9268L39.0348 17.4745C39.0125 17.3329 38.9639 17.1974 38.892 17.0757C38.8201 16.954 38.7261 16.8484 38.6156 16.765C38.5051 16.6817 38.3801 16.6221 38.2477 16.5898C38.1154 16.5575 37.9784 16.553 37.8444 16.5766C37.7105 16.6003 37.5822 16.6516 37.4671 16.7276C37.3519 16.8036 37.252 16.9029 37.1731 17.0197C37.0942 17.1365 37.0378 17.2686 37.0072 17.4084C36.9766 17.5482 36.9724 17.693 36.9948 17.8346L37.8273 23.125H37.0909L33.8227 15.6619C33.0508 13.8923 32.8182 11.913 33.1571 9.99759C33.4959 8.08222 34.3894 6.32537 35.7141 4.96989L35.8513 4.82972C37.3562 3.29057 39.3271 2.36232 41.4163 2.20864C43.5056 2.05496 45.5792 2.68571 47.2714 3.98968C48.9636 5.29366 50.1658 7.18711 50.6661 9.33622C51.1663 11.4853 50.9325 13.7521 50.0058 15.7368ZM37.4659 32.2678V25.3122H46.1567V32.2678H37.4659ZM46.1567 51.1189C46.1561 51.8343 45.8871 52.5202 45.4086 53.0263C44.9301 53.5323 44.2813 53.8173 43.6044 53.8185H40.0228C39.3459 53.8173 38.6971 53.5323 38.2186 53.0263C37.7401 52.5202 37.4711 51.8343 37.4705 51.1189V34.455H42.0263V41.5049C42.0555 41.7717 42.1765 42.0178 42.3663 42.1965C42.556 42.3752 42.8013 42.4739 43.0555 42.4739C43.3096 42.4739 43.5549 42.3752 43.7447 42.1965C43.9344 42.0178 44.0554 41.7717 44.0846 41.5049V34.455H46.143V51.1141L46.1567 51.1189ZM49.649 3.26604C47.6049 1.17765 44.8729 0.0102539 42.0297 0.0102539C39.1865 0.0102539 36.4545 1.17765 34.4104 3.26604L34.2732 3.40863C32.6413 5.07998 31.5405 7.24533 31.1227 9.60588C30.7049 11.9664 30.9906 14.4058 31.9404 16.5875L35.3939 24.4929V51.1141C35.3942 51.7562 35.5141 52.3919 35.7469 52.985C35.9797 53.578 36.3208 54.1168 36.7506 54.5706C37.1805 55.0244 37.6907 55.3843 38.2521 55.6297C38.8136 55.8751 39.4153 56.0012 40.0228 56.0009H43.6112C44.8369 55.999 46.0119 55.4834 46.8784 54.5673C47.7448 53.6512 48.2321 52.4094 48.2333 51.1141V24.4953L51.8675 16.7035C52.898 14.5041 53.2387 12.0149 52.8402 9.59699C52.4418 7.1791 51.3248 4.95819 49.6513 3.25637L49.649 3.26604Z" fill="#C49F60"/><path fill-rule="evenodd" clip-rule="evenodd" d="M13.6612 52.718C13.6612 53.0084 13.552 53.2868 13.3577 53.4922C13.1634 53.6975 12.8999 53.8128 12.6252 53.8128H10.7635V45.5014C10.7635 45.211 10.6544 44.9326 10.4601 44.7272C10.2658 44.5219 10.0022 44.4066 9.72747 44.4066C9.4527 44.4066 9.18918 44.5219 8.99489 44.7272C8.80059 44.9326 8.69144 45.211 8.69144 45.5014V53.8128H3.10419C2.82942 53.8128 2.5659 53.6975 2.3716 53.4922C2.17731 53.2868 2.06816 53.0084 2.06816 52.718V37.1876H13.6612V52.718ZM3.9321 30.1885H11.7972V35.0003H3.9321V30.1885ZM5.17396 19.5545C5.17389 19.3654 5.22014 19.1796 5.30822 19.015C5.3963 18.8504 5.5232 18.7128 5.67657 18.6154C5.82994 18.5181 6.00455 18.4644 6.1834 18.4595C6.36225 18.4547 6.53924 18.4989 6.69714 18.5878L10.0088 20.4632C10.1745 20.5565 10.3131 20.6958 10.4094 20.8662C10.5057 21.0366 10.5562 21.2315 10.5554 21.4299V28.0037H5.17396V19.5545ZM13.8647 35.0221V30.1885C13.866 29.7627 13.749 29.3459 13.5283 28.9898C13.3075 28.6337 12.9927 28.3538 12.6229 28.1849V21.4178C12.6255 20.8227 12.4744 20.2381 12.1858 19.7271C11.8973 19.216 11.4822 18.7979 10.9853 18.5177L7.67599 16.6591C7.20233 16.3898 6.67057 16.2552 6.13284 16.2685C5.59511 16.2818 5.06988 16.4425 4.60865 16.7349C4.14743 17.0274 3.76604 17.4415 3.5019 17.9366C3.23775 18.4317 3.09991 18.9909 3.1019 19.5593V28.1946C2.73207 28.3635 2.41726 28.6433 2.19651 28.9995C1.97576 29.3556 1.85877 29.7724 1.86004 30.1981V35.0318C1.34987 35.0867 0.877056 35.3394 0.53284 35.7411C0.188623 36.1428 -0.00259324 36.665 -0.00390625 37.2069V52.7373C-0.00330049 53.6076 0.324112 54.442 0.906433 55.0574C1.48875 55.6727 2.27838 56.0187 3.1019 56.0194H12.6252C13.4487 56.0187 14.2383 55.6727 14.8206 55.0574C15.4029 54.442 15.7304 53.6076 15.731 52.7373V37.1876C15.7307 36.6453 15.5398 36.1226 15.1954 35.7207C14.851 35.3187 14.3776 35.0663 13.867 35.0124L13.8647 35.0221Z" fill="#C49F60"/><path fill-rule="evenodd" clip-rule="evenodd" d="M10.4609 40.571C10.2918 40.3933 10.0696 40.283 9.83222 40.2589C9.59482 40.2348 9.35686 40.2984 9.15883 40.4388C8.9608 40.5793 8.81494 40.7879 8.74608 41.0292C8.67722 41.2705 8.68961 41.5295 8.78114 41.7622C8.87267 41.9949 9.03769 42.187 9.24811 42.3056C9.45852 42.4242 9.70134 42.4621 9.93523 42.4128C10.1691 42.3636 10.3796 42.2302 10.5309 42.0354C10.6822 41.8406 10.765 41.5964 10.7651 41.3444C10.7642 41.0543 10.6548 40.7763 10.4609 40.571Z" fill="#C49F60"/><path fill-rule="evenodd" clip-rule="evenodd" d="M29.3948 40.2182C29.3968 44.9889 28.2139 49.6766 25.9642 53.8128H23.3113C21.0606 49.6771 19.8776 44.9891 19.8807 40.2182V33.9055H26.1175C26.2626 33.9233 26.4096 33.9084 26.5489 33.8618C26.6882 33.8152 26.8166 33.7381 26.9257 33.6354C27.0348 33.5327 27.1221 33.4067 27.1819 33.2659C27.2416 33.125 27.2725 32.9723 27.2725 32.818C27.2725 32.6636 27.2416 32.5109 27.1819 32.3701C27.1221 32.2292 27.0348 32.1033 26.9257 32.0005C26.8166 31.8978 26.6882 31.8207 26.5489 31.7741C26.4096 31.7276 26.2626 31.7127 26.1175 31.7304H19.8715V29.0937H29.3948V40.211V40.2182ZM30.4285 26.9064H25.6669V16.1927H27.4279C27.5679 16.1997 27.7078 16.1765 27.8391 16.1247C27.9704 16.0729 28.0904 15.9935 28.1918 15.8912C28.2932 15.789 28.3739 15.6661 28.429 15.5299C28.4842 15.3938 28.5126 15.2472 28.5126 15.0991C28.5126 14.951 28.4842 14.8044 28.429 14.6683C28.3739 14.5321 28.2932 14.4092 28.1918 14.307C28.0904 14.2047 27.9704 14.1253 27.8391 14.0735C27.7078 14.0217 27.5679 13.9985 27.4279 14.0055H25.6669V12.6883H27.4279C27.5731 12.7061 27.7201 12.6912 27.8594 12.6446C27.9987 12.598 28.1271 12.5209 28.2362 12.4182C28.3453 12.3155 28.4326 12.1895 28.4923 12.0487C28.5521 11.9078 28.583 11.7551 28.583 11.6008C28.583 11.4464 28.5521 11.2937 28.4923 11.1528C28.4326 11.012 28.3453 10.886 28.2362 10.7833C28.1271 10.6806 27.9987 10.6035 27.8594 10.5569C27.7201 10.5103 27.5731 10.4955 27.4279 10.5132H25.6669V9.18394H27.4279C27.7027 9.18394 27.9662 9.06859 28.1605 8.86328C28.3548 8.65796 28.464 8.37949 28.464 8.08912C28.464 7.79876 28.3548 7.52029 28.1605 7.31497C27.9662 7.10965 27.7027 6.99431 27.4279 6.99431H25.6669V5.68681H27.4279C27.5731 5.70455 27.7201 5.68965 27.8594 5.64309C27.9987 5.59653 28.1271 5.51937 28.2362 5.41666C28.3453 5.31396 28.4326 5.18803 28.4923 5.04715C28.5521 4.90628 28.583 4.75363 28.583 4.59925C28.583 4.44486 28.5521 4.29221 28.4923 4.15134C28.4326 4.01046 28.3453 3.88454 28.2362 3.78183C28.1271 3.67912 27.9987 3.60196 27.8594 3.5554C27.7201 3.50884 27.5731 3.49394 27.4279 3.51168H25.6669V2.18727H27.4279C27.5731 2.205 27.7201 2.19011 27.8594 2.14355C27.9987 2.09699 28.1271 2.01982 28.2362 1.91712C28.3453 1.81441 28.4326 1.68849 28.4923 1.54761C28.5521 1.40673 28.583 1.25409 28.583 1.0997C28.583 0.945311 28.5521 0.792668 28.4923 0.651791C28.4326 0.510914 28.3453 0.384989 28.2362 0.282283C28.1271 0.179576 27.9987 0.102411 27.8594 0.0558522C27.7201 0.00929363 27.5731 -0.00560535 27.4279 0.0121334H21.8384C21.6984 0.00517678 21.5585 0.0283086 21.4272 0.080129C21.2959 0.131949 21.176 0.211381 21.0746 0.313617C20.9732 0.415852 20.8924 0.538766 20.8373 0.674921C20.7821 0.811075 20.7537 0.957638 20.7537 1.10574C20.7537 1.25384 20.7821 1.40041 20.8373 1.53656C20.8924 1.67272 20.9732 1.79563 21.0746 1.89787C21.176 2.0001 21.2959 2.07953 21.4272 2.13135C21.5585 2.18317 21.6984 2.20631 21.8384 2.19935H23.5971V3.51168H21.8361C21.5701 3.5249 21.319 3.64589 21.1352 3.84954C20.9513 4.05318 20.8487 4.32383 20.8487 4.60529C20.8487 4.88675 20.9513 5.1574 21.1352 5.36104C21.319 5.56468 21.5701 5.68568 21.8361 5.6989H23.5971V7.00881H21.8361C21.5613 7.00881 21.2978 7.12416 21.1035 7.32947C20.9092 7.53479 20.8001 7.81326 20.8001 8.10363C20.8001 8.39399 20.9092 8.67246 21.1035 8.87778C21.2978 9.0831 21.5613 9.19844 21.8361 9.19844H23.5971V10.5108H21.8361C21.5836 10.5416 21.3507 10.6695 21.1816 10.87C21.0125 11.0705 20.9191 11.3298 20.9191 11.5983C20.9191 11.8669 21.0125 12.1261 21.1816 12.3267C21.3507 12.5272 21.5836 12.655 21.8361 12.6859H23.5971V13.9982H21.8361C21.5701 14.0115 21.319 14.1324 21.1352 14.3361C20.9513 14.5397 20.8487 14.8104 20.8487 15.0918C20.8487 15.3733 20.9513 15.644 21.1352 15.8476C21.319 16.0512 21.5701 16.1722 21.8361 16.1855H23.5971V26.904H18.8378C18.563 26.904 18.2995 27.0194 18.1052 27.2247C17.9109 27.43 17.8018 27.7085 17.8018 27.9988V40.2158C17.8015 45.5949 19.1969 50.8711 21.8361 55.4708C21.9282 55.6317 22.0581 55.7647 22.2132 55.857C22.3682 55.9493 22.5432 55.9977 22.7212 55.9976H26.5451C26.723 55.9973 26.8978 55.9486 27.0528 55.8564C27.2078 55.7641 27.3378 55.6313 27.4302 55.4708C30.0694 50.8711 31.4648 45.5949 31.4646 40.2158V28.0013C31.4646 27.7109 31.3554 27.4324 31.1611 27.2271C30.9668 27.0218 30.7033 26.9064 30.4285 26.9064Z" fill="#C49F60"/><path fill-rule="evenodd" clip-rule="evenodd" d="M43.7879 44.5563C43.6431 44.403 43.4585 44.2985 43.2575 44.2561C43.0564 44.2136 42.848 44.2352 42.6586 44.318C42.4692 44.4008 42.3072 44.5411 42.1933 44.7212C42.0794 44.9013 42.0186 45.1131 42.0186 45.3297C42.0186 45.5463 42.0794 45.7581 42.1933 45.9382C42.3072 46.1182 42.4692 46.2586 42.6586 46.3414C42.848 46.4242 43.0564 46.4457 43.2575 46.4033C43.4585 46.3609 43.6431 46.2564 43.7879 46.1031C43.8844 46.0017 43.961 45.8813 44.0133 45.7485C44.0656 45.6158 44.0925 45.4734 44.0925 45.3297C44.0925 45.1859 44.0656 45.0436 44.0133 44.9108C43.961 44.7781 43.8844 44.6576 43.7879 44.5563Z" fill="#C49F60"/></g>
	</symbol>
  <symbol id="massagist" width="53" height="56" viewBox="0 0 53 56" fill="none" xmlns="http://www.w3.org/2000/svg">
		<g><path fill-rule="evenodd" clip-rule="evenodd" d="M49.4672 41.0651C48.77 41.0651 48.0885 40.8466 47.5088 40.4374C46.9291 40.0282 46.4773 39.4465 46.2105 38.7659C45.9437 38.0854 45.8739 37.3365 46.0099 36.6141C46.1459 35.8916 46.4816 35.228 46.9746 34.7071C47.4676 34.1862 48.0957 33.8315 48.7795 33.6878C49.4633 33.5441 50.172 33.6178 50.8162 33.8997C51.4603 34.1816 52.0108 34.659 52.3981 35.2715C52.7855 35.884 52.9922 36.604 52.9922 37.3407C52.7691 38.4943 52.1491 39.5195 51.252 40.2182C50.355 40.9168 49.2447 41.2393 48.1357 41.1232C47.0267 41.0071 45.9978 40.4608 45.2479 39.5897C44.4981 38.7187 44.0805 37.5848 44.076 36.4074C44.0769 36.094 44.1061 35.7815 44.163 35.4741L49.4672 41.0651ZM44.1672 26.1323C43.1189 26.1323 42.0942 26.4607 41.2227 27.0761C40.3511 27.6914 39.6718 28.5659 39.2706 29.5892C38.8695 30.6124 38.7645 31.7383 38.969 32.8246C39.1735 33.9108 39.6783 34.9086 40.4195 35.6918C41.1607 36.4749 42.1051 37.0082 43.1332 37.2243C44.1613 37.4404 45.227 37.3295 46.1954 36.9056C47.1639 36.4818 47.9916 35.7641 48.574 34.8432C49.1563 33.9223 49.4672 32.8396 49.4672 31.7321C49.4666 30.2471 48.9081 28.8231 47.9142 27.7731C46.9204 26.7231 45.5727 26.1329 44.1672 26.1323Z" fill="#C49F60"/><path fill-rule="evenodd" clip-rule="evenodd" d="M22.967 1.8666C23.6642 1.8666 24.3457 2.08503 24.9254 2.49427C25.5051 2.90352 25.9569 3.4852 26.2237 4.16574C26.4905 4.84629 26.5603 5.59515 26.4243 6.31762C26.2883 7.04009 25.9526 7.70372 25.4596 8.22459C24.9666 8.74546 24.3385 9.10017 23.6547 9.24388C22.9709 9.38759 22.2621 9.31383 21.618 9.03194C20.9739 8.75005 20.4234 8.27268 20.036 7.6602C19.6487 7.04772 19.442 6.32764 19.442 5.59102C19.442 4.60324 19.8133 3.65592 20.4744 2.95745C21.1355 2.25899 22.0321 1.8666 22.967 1.8666ZM22.967 11.1996C24.0152 11.1996 25.0399 10.8711 25.9115 10.2558C26.7831 9.64052 27.4624 8.76595 27.8636 7.74273C28.2647 6.7195 28.3697 5.59357 28.1652 4.50732C27.9607 3.42107 27.4559 2.42328 26.7147 1.64014C25.9734 0.856997 25.0291 0.32367 24.001 0.107601C22.9729 -0.108468 21.9072 0.00242628 20.9388 0.42626C19.9703 0.850095 19.1426 1.56783 18.5602 2.48871C17.9778 3.40959 17.667 4.49225 17.667 5.59978C17.667 7.08494 18.2254 8.50926 19.2193 9.55943C20.2133 10.6096 21.5613 11.1996 22.967 11.1996Z" fill="#C49F60"/><path fill-rule="evenodd" clip-rule="evenodd" d="M51.2334 46.665H1.76671V44.7984H15.9V42.9406H1.76671V41.074H32.364L32.5154 42.3162C32.5874 43.001 32.8958 43.6338 33.3816 44.0933C33.8675 44.5529 34.4967 44.8071 35.1488 44.8072H46.8167C47.2408 44.811 47.6594 44.7062 48.0368 44.5017C48.4142 44.2973 48.739 43.9993 48.9836 43.6332C49.2282 43.2671 49.3851 42.8439 49.4411 42.3997C49.4971 41.9556 49.4504 41.5037 49.305 41.0828H51.2334V46.665ZM45.9334 54.1336H44.1667V51.3315H42.4V54.1336H40.6417V50.3895H38.875V54.1248H37.1083V48.5316H45.9417L45.9334 54.1336ZM15.9 54.1336H14.1334V52.2648H12.3667V54.1314H10.6V51.3315H8.83337V54.1336H7.06671V48.5316H15.9V54.1336ZM1.76671 35.4655V33.5069L18.55 31.7323H34.45C34.6843 31.7323 34.909 31.8306 35.0746 32.0056C35.2403 32.1807 35.3334 32.4181 35.3334 32.6656C35.3312 32.7043 35.3312 32.743 35.3334 32.7817L36.2167 40.2481C36.243 40.4737 36.3465 40.6813 36.5077 40.8318C36.6689 40.9823 36.8766 41.0654 37.0917 41.0653H46.8084C47.0427 41.0653 47.2674 41.1636 47.433 41.3386C47.5987 41.5136 47.6917 41.751 47.6917 41.9986C47.6917 42.2461 47.5987 42.4835 47.433 42.6585C47.2674 42.8335 47.0427 42.9319 46.8084 42.9319H35.1488C34.9288 42.9323 34.7166 42.8458 34.5539 42.6893C34.3912 42.5328 34.2898 42.3177 34.2696 42.0862L33.5626 36.2805C33.5358 36.0553 33.4321 35.8482 33.2709 35.6981C33.1098 35.548 32.9023 35.4653 32.6875 35.4655H1.76671ZM52.1167 39.1899H37.8797L37.1 32.5933C37.0849 31.862 36.7992 31.166 36.3042 30.6546C35.8093 30.1431 35.1444 29.8568 34.4521 29.8569H18.465L0.794209 31.7367C0.576605 31.7605 0.375051 31.8686 0.228407 32.0401C0.0817621 32.2116 0.000411432 32.4344 3.8944e-05 32.6656V36.39C3.8944e-05 36.6375 0.0931041 36.8749 0.258761 37.05C0.424418 37.225 0.649098 37.3233 0.883372 37.3233H31.9079L32.136 39.1899H0.883372C0.76667 39.1899 0.651124 39.2143 0.543408 39.2618C0.435693 39.3092 0.337945 39.3788 0.25581 39.4663C0.173676 39.5539 0.108784 39.6579 0.0648831 39.7721C0.0209823 39.8864 -0.00105685 40.0087 3.8944e-05 40.132V47.5983C3.8944e-05 47.8459 0.0931041 48.0832 0.258761 48.2583C0.424418 48.4333 0.649098 48.5316 0.883372 48.5316H5.30004V55.0669C5.30004 55.1894 5.3229 55.3106 5.36732 55.4237C5.41174 55.5368 5.47683 55.6396 5.55889 55.7261C5.64094 55.8126 5.73833 55.8811 5.84549 55.9278C5.95265 55.9744 6.06747 55.9983 6.18337 55.998H16.7834C17.0178 55.9974 17.2425 55.8986 17.4081 55.7232C17.5737 55.5479 17.6667 55.3102 17.6667 55.0625V48.5316H35.3334V55.0669C35.3334 55.1894 35.3562 55.3106 35.4007 55.4237C35.4451 55.5368 35.5102 55.6396 35.5922 55.7261C35.6743 55.8126 35.7717 55.8811 35.8788 55.9278C35.986 55.9744 36.1008 55.9983 36.2167 55.998H46.8167C47.0512 55.9974 47.2758 55.8986 47.4414 55.7232C47.607 55.5479 47.7 55.3102 47.7 55.0625V48.5316H52.1167C52.2328 48.5319 52.3478 48.508 52.4551 48.4612C52.5624 48.4144 52.6598 48.3456 52.7419 48.2589C52.824 48.1722 52.8891 48.0692 52.9334 47.9558C52.9776 47.8425 53.0003 47.721 53 47.5983V40.132C53 39.8844 52.907 39.647 52.7413 39.472C52.5757 39.297 52.351 39.1987 52.1167 39.1987V39.1899Z" fill="#C49F60"/><path fill-rule="evenodd" clip-rule="evenodd" d="M18.6616 14.9325H25.4318C26.8949 16.8173 28.1785 18.85 29.2637 21.0012C29.3634 21.1815 29.5164 21.3223 29.6991 21.4021L34.9556 23.6608C35.0719 23.7407 35.1674 23.8502 35.2334 23.9792C35.2993 24.1082 35.3335 24.2526 35.333 24.3991C35.3329 24.5424 35.2996 24.6835 35.236 24.81C35.1723 24.9365 35.0803 25.0446 34.968 25.1248C34.8556 25.205 34.7264 25.2549 34.5916 25.2701C34.4567 25.2853 34.3204 25.2653 34.1946 25.2119L27.9885 22.5829L25.4898 18.1837C25.3987 18.0238 25.2643 17.8964 25.1039 17.818C24.9435 17.7396 24.7645 17.7138 24.5901 17.744C24.4158 17.7742 24.254 17.859 24.1256 17.9874C23.9973 18.1157 23.9084 18.2818 23.8704 18.4642L22.2592 26.1321H15.3294L18.5165 15.1889C18.5474 15.0937 18.5968 15.0063 18.6616 14.9325ZM16.8203 14.6587L13.2953 26.7915C13.2689 26.8801 13.2556 26.9725 13.2559 27.0654C13.2559 27.188 13.2787 27.3093 13.3231 27.4226C13.3675 27.5358 13.4326 27.6387 13.5146 27.7253C13.5966 27.812 13.694 27.8807 13.8012 27.9276C13.9083 27.9746 14.0232 27.9987 14.1392 27.9987H22.9746C23.1751 27.9983 23.3695 27.9259 23.5259 27.7933C23.6823 27.6607 23.7914 27.4759 23.8351 27.2691L25.1228 21.1523L26.6324 23.8142C26.7327 23.9879 26.8831 24.1231 27.0616 24.1998L33.5394 26.9471C34.1509 27.2049 34.8323 27.2081 35.446 26.9558C36.0596 26.7035 36.5598 26.2147 36.8456 25.5879C37.1314 24.9612 37.1816 24.2432 36.9859 23.5789C36.7902 22.9147 36.3632 22.3536 35.7912 22.0089C35.7572 21.9888 35.7219 21.9712 35.6855 21.9564L30.6509 19.794C26.9869 13.0747 26.0642 13.0747 25.6163 13.0747H18.5496C18.1422 13.1218 17.7581 13.2998 17.4493 13.5845C17.1405 13.8693 16.9217 14.2473 16.8224 14.6674L16.8203 14.6587Z" fill="#C49F60"/><path d="M19.4337 42.9316H17.667V44.7982H19.4337V42.9316Z" fill="#C49F60"/><path d="M30.0335 42.9316H21.2002V44.7982H30.0335V42.9316Z" fill="#C49F60"/></g>
	</symbol>
  <symbol id="hairdresser" width="53" height="56" viewBox="0 0 53 56" fill="none" xmlns="http://www.w3.org/2000/svg">
		<g><path fill-rule="evenodd" clip-rule="evenodd" d="M43.5144 10.8062C43.7423 13.3097 44.7647 15.6583 46.4156 17.4706L50.6402 21.9331C50.9773 22.2712 51.1839 22.7293 51.2202 23.2189C51.2566 23.7084 51.12 24.1949 50.8369 24.5844C50.6736 24.7717 50.4768 24.9231 50.2579 25.0297C50.039 25.1363 49.8022 25.196 49.5613 25.2054C49.3204 25.2149 49.0801 25.1739 48.8543 25.0847C48.6285 24.9955 48.4216 24.86 48.2457 24.686L43.9163 20.1106C42.2005 18.3666 39.9773 17.2859 37.6072 17.0438C35.5227 16.7818 34.6012 15.551 33.2479 14.1237L40.75 6.20376C42.1482 7.67845 43.2664 8.60889 43.5144 10.8062ZM28.8758 8.18206C28.7949 8.08943 28.6972 8.01501 28.5885 7.96327C28.4797 7.91153 28.3622 7.88354 28.243 7.88098C28.1237 7.87842 28.0052 7.90133 27.8946 7.94836C27.7839 7.99538 27.6834 8.06554 27.5991 8.15463C27.5148 8.24371 27.4483 8.34987 27.4038 8.46675C27.3593 8.58362 27.3376 8.7088 27.34 8.83475C27.3425 8.96071 27.369 9.08485 27.4179 9.19971C27.4669 9.31458 27.5374 9.4178 27.6251 9.50319L31.5482 13.6472C31.4639 13.9635 31.4613 14.2978 31.5406 14.6155C31.6199 14.9332 31.7783 15.2227 31.9993 15.4539C33.5558 17.0957 34.7209 18.5704 37.3955 18.9069C39.3729 19.0988 41.2308 19.9909 42.6677 21.4385L46.9971 26.0139C47.6759 26.6895 48.5798 27.0545 49.5121 27.0294C50.4444 27.0044 51.3296 26.5913 51.975 25.8801C52.6204 25.1689 52.9736 24.2173 52.9579 23.2323C52.9421 22.2473 52.5586 21.3087 51.8909 20.621L47.677 16.1495C46.3072 14.6318 45.462 12.6705 45.2782 10.5827C44.9404 7.67845 43.4011 6.36862 41.9986 4.88037C41.7789 4.65181 41.5065 4.48781 41.2084 4.40463C40.9103 4.32145 40.5968 4.32196 40.2989 4.40612L36.3757 0.26207C36.2072 0.103275 35.9875 0.01856 35.7617 0.0252729C35.5359 0.0319857 35.3211 0.129618 35.1613 0.298178C35.0014 0.466738 34.9086 0.693472 34.9019 0.931949C34.8952 1.17043 34.975 1.40261 35.125 1.58094L38.875 5.53981L37.6286 6.86319L33.8765 2.90207C33.7084 2.73847 33.487 2.64985 33.2586 2.65476C33.0301 2.65967 32.8123 2.75773 32.6507 2.92841C32.4891 3.09909 32.3963 3.32917 32.3916 3.5705C32.387 3.81183 32.4709 4.04571 32.6257 4.2232L36.3757 8.18206L35.125 9.50319L31.375 5.54206C31.2092 5.36717 30.9844 5.26904 30.75 5.26925C30.5156 5.26946 30.291 5.368 30.1254 5.54319C29.9598 5.71839 29.8669 5.95588 29.8671 6.20343C29.8673 6.45097 29.9606 6.6883 30.1265 6.86319L33.8765 10.8221L32.6257 12.1432L28.8758 8.18206Z" fill="#C49F60"/><path fill-rule="evenodd" clip-rule="evenodd" d="M48.583 53.1998C48.583 53.3224 48.5601 53.4439 48.5156 53.5572C48.471 53.6705 48.4058 53.7734 48.3236 53.8601C48.2414 53.9467 48.1438 54.0154 48.0364 54.0621C47.929 54.1089 47.814 54.1328 47.6979 54.1325H35.3255C35.0913 54.1325 34.8667 54.0342 34.7011 53.8593C34.5355 53.6844 34.4425 53.4471 34.4425 53.1998V52.2648H43.2787C43.5129 52.2648 43.7375 52.1665 43.9031 51.9916C44.0686 51.8167 44.1617 51.5795 44.1617 51.3321C44.1617 51.0848 44.0686 50.8475 43.9031 50.6726C43.7375 50.4977 43.5129 50.3994 43.2787 50.3994H34.2822C33.7092 47.3642 35.1972 55.2255 33.1918 44.6407C38.6553 46.0747 44.368 46.0747 49.8315 44.6407C48.335 52.511 48.583 50.5846 48.583 53.1998ZM41.5127 40.1308C46.894 40.1308 50.5542 41.3096 51.1806 41.9962C50.5542 42.6737 46.9047 43.8638 41.5127 43.8638C36.1208 43.8638 32.4713 42.6827 31.8428 42.0052C32.4713 41.3096 36.1315 40.1308 41.5127 40.1308ZM25.5999 48.5363H17.6895C17.5629 48.538 17.4375 48.511 17.3216 48.4571C17.2057 48.4033 17.1022 48.3238 17.0179 48.2241C16.9336 48.1243 16.8705 48.0066 16.8329 47.8789C16.7954 47.7513 16.7842 47.6166 16.8001 47.4839C16.8001 47.4365 16.8001 48.1614 16.8001 41.4767C18.259 42.4081 19.932 42.8987 21.6367 42.8951C23.3414 42.8916 25.0125 42.3939 26.4679 41.4564V47.5968C26.4708 47.7191 26.4504 47.8408 26.4081 47.9546C26.3657 48.0685 26.3023 48.1723 26.2214 48.2598C26.1405 48.3474 26.0438 48.4169 25.9371 48.4644C25.8304 48.5119 25.7157 48.5363 25.5999 48.5363ZM13.7342 34.7356C12.1521 31.1629 11.8336 27.2831 11.8336 22.1838C11.8336 18.2497 12.5904 15.4404 14.1469 13.6472C15.1346 15.3952 17.2704 17.7258 21.6297 17.7258C27.7464 17.7258 28.6572 17.8229 31.3831 20.6865C31.4109 21.1698 31.4237 21.6711 31.4237 22.1792C31.4237 27.2695 31.103 31.1403 29.4995 34.7311C27.6438 38.9045 25.0098 41.0205 21.6297 41.0205C18.2496 41.0205 15.5793 38.909 13.7364 34.7356H13.7342ZM8.81693 26.0907C8.81693 24.0153 9.28728 23.742 9.30866 23.7307C9.40487 23.681 9.68067 23.7307 10.0847 23.9565C10.0997 26.1007 10.277 28.2401 10.615 30.3544C9.68708 29.7853 8.81266 28.5794 8.81266 26.0907H8.81693ZM33.9508 23.7307C33.9722 23.7307 34.4425 24.0107 34.4425 26.0907C34.4425 28.5748 33.5574 29.7921 32.6317 30.3815C32.9783 28.266 33.1592 26.1238 33.1726 23.9769C33.5788 23.7307 33.8546 23.6878 33.9508 23.751V23.7307ZM39.9371 38.3083C38.8681 35.0337 40.2407 30.6299 40.6169 23.3581C40.6232 23.2355 40.6066 23.1127 40.5681 22.9969C40.5295 22.881 40.4696 22.7743 40.392 22.6829C40.3144 22.5915 40.2205 22.5171 40.1156 22.464C40.0108 22.4109 39.8971 22.3801 39.781 22.3735C39.6649 22.3668 39.5487 22.3843 39.439 22.4251C39.3293 22.4659 39.2283 22.529 39.1418 22.611C39.0552 22.693 38.9848 22.7922 38.9345 22.903C38.8843 23.0137 38.8552 23.1338 38.8488 23.2565C38.4854 30.3341 37.1385 34.6769 38.1241 38.4415C34.4895 38.7938 30.0298 39.7514 30.0298 41.9962C30.0653 42.3773 30.195 42.7418 30.4059 43.0534C30.6167 43.3649 30.9014 43.6124 31.2313 43.7712L31.6589 46.0521C30.607 46.208 29.4632 46.3322 28.2382 46.427V39.9727C30.0963 37.8834 31.4411 35.3446 32.1549 32.5789C33.5681 32.1837 36.217 30.8151 36.217 26.0952C36.217 23.9114 35.7381 22.5948 34.7568 22.0708C34.2675 21.8201 33.7058 21.7773 33.1875 21.9511C33.1875 21.3549 33.1683 20.7678 33.1298 20.2077C33.1128 19.9865 33.0227 19.7787 32.8754 19.6205C29.4547 15.9891 27.9966 15.8627 21.634 15.8627C17.403 15.8627 15.8145 13.3085 15.2436 11.7977C15.1938 11.6629 15.115 11.5422 15.0133 11.4453C14.9117 11.3484 14.79 11.2778 14.658 11.2392C14.526 11.2006 14.3873 11.1951 14.2529 11.223C14.1186 11.251 13.9922 11.3116 13.8839 11.4002C11.3526 13.4395 10.1125 16.8925 10.0762 21.9466C9.55902 21.7756 8.99965 21.8183 8.51121 22.0663C7.52347 22.5835 7.05526 23.9069 7.05526 26.0907C7.05526 30.7948 9.68067 32.1701 11.096 32.5676C11.8045 35.3559 13.1603 37.9135 15.0405 40.0088V46.4248C5.98628 45.7314 3.68156 43.6267 2.47361 42.1836C8.30596 39.2478 3.50411 27.3576 4.35501 17.9742C5.22516 8.44854 12.7914 8.01042 15.0918 8.0985C15.282 8.12009 15.474 8.08158 15.6434 7.98784C19.3457 6.03428 23.5015 5.24569 27.616 5.71595C27.8491 5.7426 28.0826 5.67038 28.2652 5.51516C28.4478 5.35994 28.5646 5.13444 28.5898 4.88827C28.6151 4.6421 28.5467 4.39543 28.3998 4.20252C28.2528 4.0096 28.0393 3.88625 27.8063 3.8596C23.4154 3.36889 18.9823 4.18885 15.0106 6.22634C9.53956 6.07954 3.39721 9.01312 2.59547 17.7958C1.71036 27.597 6.5229 39.4262 0.835933 40.8105C0.649529 40.8239 0.471818 40.8988 0.3279 41.0247C0.183981 41.1505 0.0811302 41.3209 0.033873 41.5119C-0.0133842 41.7028 -0.00265887 41.9046 0.0645341 42.0888C0.131727 42.2729 0.251992 42.4301 0.408341 42.5382C1.84719 43.9383 2.91617 47.4071 15.1346 48.3082C15.2843 48.9071 15.6168 49.4371 16.0807 49.816C16.5445 50.1949 17.1138 50.4016 17.7002 50.4039H25.6106C26.1954 50.4062 26.7639 50.2008 27.2249 49.8207C27.686 49.4407 28.0127 48.908 28.1526 48.3082C29.5402 48.2066 30.8336 48.0643 32.0159 47.8859C32.8198 52.1316 32.6851 50.9663 32.6851 53.1998C32.6851 53.9425 32.9644 54.6547 33.4616 55.1799C33.9588 55.7051 34.6331 56.0001 35.3362 56.0001H47.6979C48.401 56.0001 49.0753 55.7051 49.5724 55.1799C50.0696 54.6547 50.3489 53.9425 50.3489 53.1998C50.3489 50.8308 50.1137 52.6691 51.7985 43.7712C52.1272 43.6132 52.4111 43.367 52.6219 43.0572C52.8327 42.7474 52.963 42.3847 53 42.0052C53 38.6357 43.1654 38.1547 39.9306 38.3173L39.9371 38.3083Z" fill="#C49F60"/></g>
	</symbol>
  <symbol id="epilation" width="53" height="56" viewBox="0 0 53 56" fill="none" xmlns="http://www.w3.org/2000/svg">
		<g><path fill-rule="evenodd" clip-rule="evenodd" d="M47.7876 40.14H45.972L25.6951 38.2396C25.5724 38.2261 25.4484 38.2423 25.3324 38.2869L20.173 40.14H12.9005L24.9514 35.4502L36.3909 33.7284L47.6124 32.6802H47.7795C47.9034 32.6788 48.0273 32.6859 48.1503 32.7018C49.0316 32.8259 49.8364 33.2957 50.4047 34.0179C50.9729 34.7402 51.263 35.6618 51.2173 36.5996C51.1716 37.5375 50.7935 38.4228 50.158 39.0796C49.5225 39.7363 48.6763 40.1164 47.7876 40.1443V40.14ZM3.97755 33.5089C5.57177 32.9472 7.2202 32.5748 8.89243 32.3983L23.8571 30.8142H33.2794L34.8647 32.069L24.609 33.6143C24.5479 33.6235 24.4878 33.6393 24.4297 33.6617L7.79412 40.1379H4.99027C4.22575 40.1365 3.48658 39.8481 2.90473 39.3243C2.32288 38.8005 1.93622 38.0753 1.81379 37.2782C1.69136 36.4811 1.84113 35.664 2.23636 34.9728C2.63158 34.2815 3.24654 33.7612 3.97143 33.5046L3.97755 33.5089ZM8.46044 27.4524C8.96627 26.5676 9.66378 25.8223 10.4956 25.2779C11.3274 24.7335 12.2696 24.4054 13.2449 24.3208L13.3264 24.5016C13.682 25.3111 14.3273 25.9383 15.1205 26.2455C15.9138 26.5526 16.79 26.5145 17.5566 26.1395L17.5811 26.1266C18.3841 27.3109 19.3286 28.3808 20.391 29.3098L8.71311 30.5452C7.97547 30.6227 7.24191 30.7453 6.51242 30.8938L8.46044 27.4524ZM18.5429 1.88551C19.1708 1.88753 19.7869 2.06627 20.3277 2.40333C20.8685 2.74039 21.3145 3.22359 21.6198 3.80318C19.203 4.01888 16.9499 5.18115 15.303 7.06172C15.0728 6.49625 14.9794 5.87917 15.0312 5.26608C15.083 4.65298 15.2784 4.06314 15.5998 3.54967C15.9212 3.03621 16.3585 2.61526 16.8722 2.32475C17.386 2.03424 17.9601 1.88329 18.5429 1.88551ZM14.5775 20.4768L16.3401 24.0518C16.4237 24.2218 16.5052 24.3768 16.5826 24.5231C16.2579 24.616 15.9124 24.5847 15.6074 24.4347C15.3024 24.2846 15.0574 24.0255 14.9158 23.7031L14.2637 22.2331C14.1352 21.9425 14.0964 21.6167 14.1527 21.3016C14.209 20.9864 14.3576 20.6979 14.5775 20.4768ZM29.8846 10.8067L32.0323 16.1766C32.2133 16.6218 32.3704 17.0773 32.503 17.5411C33.0583 19.3936 33.266 21.3427 33.1143 23.2791C33.0815 23.7924 33.0209 24.3033 32.9329 24.8094C32.7092 26.0875 32.1976 27.29 31.4414 28.3154C31.2688 28.5393 31.0808 28.7493 30.879 28.9439L23.0298 29.0257C21.2478 27.8589 19.7333 26.2887 18.5958 24.4284C18.3438 24.0292 18.1132 23.6153 17.9051 23.1887L15.358 18.0233C14.769 16.8348 14.4594 15.5142 14.4553 14.1728L15.0951 14.4203L15.6901 12.6619L14.6591 12.2681C14.7796 11.6916 14.9579 11.1303 15.1909 10.5936L17.1776 11.9926L18.1577 10.4408L16.0977 8.98586C16.6977 8.14756 17.4414 7.43574 18.2902 6.88739L19.5352 9.68535L21.1348 8.89116L19.8898 6.0932C20.7981 5.76359 21.7562 5.6133 22.716 5.64983L22.1047 8.20458L23.8184 8.65656L24.4705 5.8995C25.0473 6.05407 25.6053 6.27869 26.1332 6.56885L25.7562 7.67512L27.419 8.30574L27.6472 7.63423C28.6195 8.49421 29.3843 9.58602 29.8785 10.8196L29.8846 10.8067ZM33.6522 12.5931L34.3145 14.0781C34.4569 14.4018 34.4858 14.7683 34.3963 15.1124C34.3067 15.4564 34.1044 15.7558 33.8255 15.9571C33.7643 15.7892 33.7154 15.6084 33.6482 15.4448L32.1749 11.7408C32.4749 11.6989 32.7797 11.759 33.0453 11.9122C33.3109 12.0654 33.5234 12.3039 33.6522 12.5931ZM44.5925 27.334L46.6995 30.9046L37.4138 31.7548L34.0965 29.1247C33.9434 29.0042 33.7575 28.9393 33.5667 28.9396H33.1591C33.9025 27.7992 34.4126 26.5076 34.6568 25.1473C34.7078 24.8653 34.7506 24.5726 34.7852 24.2735H39.2681C40.3281 24.267 41.3724 24.5443 42.3035 25.0794C43.2346 25.6146 44.0221 26.3903 44.5925 27.334ZM53 36.4037C53.0068 35.12 52.5919 33.8735 51.8261 32.8767C51.0604 31.8798 49.991 31.1943 48.8004 30.9369L46.0923 26.3504C45.3634 25.1409 44.357 24.1456 43.1664 23.457C41.9758 22.7684 40.6397 22.4088 39.2824 22.4117H34.9034C34.9375 20.8477 34.7633 19.2864 34.3858 17.7736C35.1507 17.3895 35.7406 16.7012 36.0266 15.8591C36.3126 15.0171 36.2714 14.0897 35.912 13.2796L35.2518 11.801C34.9269 11.0756 34.3682 10.4959 33.6756 10.1658C32.9831 9.83577 32.2019 9.77683 31.4719 9.99958C30.6907 8.07852 29.3744 6.45406 27.6982 5.34206C26.5693 4.58051 25.3005 4.08024 23.9753 3.87421C23.8449 3.85053 23.6941 3.84838 23.5678 3.83116C23.3264 3.07975 22.9362 2.39132 22.4231 1.81175C21.91 1.23218 21.2858 0.774797 20.5922 0.47008C19.8985 0.165363 19.1514 0.020317 18.4005 0.0446094C17.6496 0.0689019 16.9123 0.261975 16.2376 0.610959C15.5629 0.959943 14.9664 1.45682 14.4878 2.06847C14.0093 2.68012 13.6597 3.39249 13.4623 4.15809C13.2649 4.9237 13.2243 5.72495 13.3432 6.50843C13.462 7.29192 13.7377 8.03964 14.1517 8.70176C13.4265 9.93311 12.957 11.313 12.7742 12.7502C12.7145 13.203 12.6852 13.6597 12.6866 14.1169C12.6827 15.7443 13.0489 17.349 13.7543 18.7959C13.1988 19.2004 12.7781 19.7796 12.552 20.4512C12.3259 21.1227 12.306 21.8524 12.495 22.5366C11.3492 22.7259 10.2567 23.1787 9.2948 23.863C8.33286 24.5473 7.52493 25.4464 6.9281 26.4967L4.10185 31.5137C3.87159 31.5869 3.64133 31.6536 3.41311 31.7289C2.57932 32.0209 1.83348 32.5406 1.25125 33.2354C0.669029 33.9301 0.27114 34.7752 0.0979525 35.6848C-0.075235 36.5944 -0.0175582 37.5362 0.265131 38.4146C0.547821 39.2931 1.04546 40.077 1.70757 40.6867C1.18706 41.017 0.756277 41.484 0.457073 42.0421C0.157869 42.6003 0.000413558 43.2306 6.54544e-09 43.8721V47.6041C-3.02527e-05 48.1294 0.104855 48.6487 0.307804 49.1283C0.510753 49.6078 0.807199 50.0367 1.17778 50.387L2.35352 48.9945C2.16888 48.8191 2.02121 48.6047 1.92011 48.3652C1.81901 48.1257 1.76673 47.8663 1.76667 47.6041V43.8721C1.76667 43.3772 1.9528 42.9025 2.28411 42.5526C2.61543 42.2026 3.06478 42.006 3.53333 42.006H49.4667C49.9352 42.006 50.3846 42.2026 50.7159 42.5526C51.0472 42.9025 51.2333 43.3772 51.2333 43.8721V47.6041C51.2323 48.0986 51.0458 48.5726 50.7147 48.9223C50.3836 49.272 49.9349 49.469 49.4667 49.4701H17.6667V51.3361H49.4667C50.4034 51.335 51.3015 50.9414 51.9639 50.2418C52.6263 49.5421 52.9989 48.5935 53 47.6041V43.8721C52.9968 43.2133 52.8279 42.5672 52.5107 42C52.1935 41.4327 51.7393 40.9646 51.1946 40.6436C51.7638 40.1142 52.2193 39.4624 52.5307 38.7319C52.842 38.0014 53.0021 37.2091 53 36.408V36.4037Z" fill="#C49F60"/><path fill-rule="evenodd" clip-rule="evenodd" d="M18.254 20.9226L19.3584 22.384C20.3165 21.5734 21.4429 21.0143 22.6452 20.7526L22.2906 18.9253C20.8126 19.2455 19.4282 19.9332 18.252 20.9312L18.254 20.9226Z" fill="#C49F60"/><path fill-rule="evenodd" clip-rule="evenodd" d="M27.0033 23.8905C26.3751 24.203 25.6923 24.3745 24.9982 24.3941H24.8535L24.8943 26.2601H25.0389C26.5723 26.2172 28.0471 25.6287 29.2243 24.59L28.0893 23.1587C27.7586 23.4509 27.3936 23.6969 27.0033 23.8905Z" fill="#C49F60"/><path fill-rule="evenodd" clip-rule="evenodd" d="M21.976 18.2621L22.4773 16.4736C19.9812 15.6944 17.4707 16.9471 16.5049 19.4502L18.135 20.1518C18.7586 18.529 20.3316 17.7542 21.9659 18.2621H21.976Z" fill="#C49F60"/><path fill-rule="evenodd" clip-rule="evenodd" d="M24.2158 15.6108L25.846 16.3447C26.5164 14.6939 28.0874 13.9083 29.6687 14.4335L30.2005 12.6557C27.7553 11.84 25.2469 13.0861 24.224 15.6108H24.2158Z" fill="#C49F60"/><path d="M24.7653 16.9982L23.165 17.7939L25.4711 22.9679L27.0714 22.1721L24.7653 16.9982Z" fill="#C49F60"/><path fill-rule="evenodd" clip-rule="evenodd" d="M27.2687 18.5744C28.2255 17.763 29.3514 17.2038 30.5534 16.943L30.1988 15.1157C28.7213 15.4361 27.337 16.1229 26.1602 17.1195L27.2687 18.5744Z" fill="#C49F60"/><path fill-rule="evenodd" clip-rule="evenodd" d="M12.7601 53.7662C12.6712 53.8737 12.5628 53.9614 12.4414 54.0242C12.32 54.0871 12.188 54.1237 12.0531 54.1321C11.8384 54.147 11.6244 54.0946 11.4378 53.9817C11.2511 53.8688 11.1001 53.7003 11.0037 53.4972C11.2662 52.7415 11.2912 51.9166 11.075 51.1448C11.5516 51.194 11.9984 51.4123 12.3425 51.764C12.6866 52.1158 12.9078 52.5803 12.97 53.0818C12.9809 53.205 12.9679 53.3292 12.9318 53.4469C12.8957 53.5645 12.8373 53.6732 12.7601 53.7662ZM8.1937 54.0568C7.93785 54.1607 7.65464 54.1608 7.39875 54.057C7.14285 53.9533 6.93242 53.7531 6.80808 53.4951C6.73078 53.3176 6.71125 53.1182 6.75253 52.9278C6.79382 52.7374 6.89359 52.5668 7.0363 52.4426H7.20339C7.98147 52.4457 8.74298 52.2053 9.39185 51.7517C9.48325 52.1396 9.45541 52.5482 9.31239 52.9182C9.20994 53.179 9.05774 53.4147 8.86527 53.6105C8.6728 53.8064 8.4442 53.9583 8.1937 54.0568ZM5.29816 49.113C5.30783 48.9902 5.34141 48.8707 5.39681 48.7622C5.45221 48.6537 5.52824 48.5584 5.62011 48.4824L5.64864 48.4587C5.82018 48.3153 6.02894 48.2302 6.24727 48.2148C6.46559 48.1994 6.68319 48.2545 6.87125 48.3726C7.10591 49.158 7.5668 49.8465 8.18962 50.342C7.77019 50.5661 7.29352 50.6416 6.83031 50.557C6.3671 50.4725 5.94201 50.2326 5.61808 49.8728L5.52434 49.763C5.44609 49.6771 5.38558 49.575 5.34665 49.4631C5.30771 49.3512 5.2912 49.232 5.29816 49.113ZM8.76221 46.2075C8.92022 45.9768 9.15432 45.817 9.41836 45.7596C9.6824 45.7022 9.9572 45.7515 10.1886 45.8975C10.3045 45.9656 10.4061 46.058 10.487 46.169C10.568 46.2801 10.6266 46.4074 10.6593 46.5432C10.6868 46.6685 10.6868 46.7988 10.6593 46.9242C9.99518 47.373 9.48626 48.0366 9.20846 48.816C8.86861 48.5298 8.62731 48.1336 8.52177 47.6882C8.46374 47.4372 8.45514 47.1762 8.4965 46.9215C8.53786 46.6668 8.6283 46.4237 8.76221 46.2075ZM13.3388 48.1811C13.4764 48.2123 13.6068 48.2722 13.7222 48.3571C13.8377 48.4421 13.9359 48.5506 14.0113 48.6761C14.072 48.7766 14.1131 48.889 14.132 49.0065C14.1509 49.1241 14.1473 49.2445 14.1213 49.3605C14.0627 49.5735 13.9393 49.7601 13.7703 49.8916C13.6012 50.0231 13.3959 50.0921 13.186 50.088C12.5378 49.5837 11.7612 49.2965 10.9568 49.2637C11.1852 48.8313 11.543 48.4911 11.974 48.2964C12.405 48.1016 12.885 48.0634 13.3388 48.1876V48.1811ZM15.513 47.6947C15.3155 47.3591 15.0566 47.0684 14.7516 46.8397C14.4465 46.6109 14.1013 46.4487 13.7362 46.3624C13.3029 46.257 12.8562 46.2272 12.4137 46.2742C12.4137 46.2139 12.3913 46.1558 12.3791 46.0955C12.2897 45.716 12.1282 45.3596 11.9044 45.0481C11.6805 44.7366 11.399 44.4764 11.077 44.2833C10.4504 43.8931 9.70624 43.7704 8.99681 43.9404C8.28738 44.1105 7.66625 44.5603 7.26044 45.198C7.04219 45.5604 6.88372 45.9592 6.79178 46.3775C6.39748 46.309 5.99391 46.3294 5.6076 46.4373C5.22129 46.5452 4.86098 46.7383 4.55033 47.0038L4.52384 47.0253C4.24467 47.2605 4.01431 47.5538 3.84709 47.8871C3.67987 48.2203 3.57938 48.5863 3.55187 48.9624C3.52593 49.3345 3.57279 49.7082 3.68953 50.0603C3.80626 50.4125 3.99038 50.7355 4.23042 51.0092L4.32415 51.1168C4.59117 51.4243 4.90274 51.6852 5.24722 51.8895C5.07369 52.256 4.98014 52.6589 4.97344 53.0686C4.96674 53.4783 5.04706 53.8844 5.2085 54.257C5.52078 54.9486 6.06855 55.4903 6.74242 55.7739C7.4163 56.0576 8.16668 56.0624 8.84372 55.7872C9.24428 55.624 9.61619 55.3913 9.94406 55.0985C10.2114 55.3818 10.529 55.6066 10.8786 55.7603C11.2282 55.9139 11.6031 55.9933 11.9817 55.9939C12.049 55.9939 12.1183 55.9939 12.1855 55.9939C12.5562 55.97 12.9184 55.8671 13.2504 55.6914C13.5824 55.5157 13.8772 55.2708 14.1172 54.9715C14.3451 54.6893 14.5166 54.3614 14.6217 54.0075C14.7267 53.6536 14.763 53.2809 14.7285 52.9118C14.6857 52.476 14.5734 52.0511 14.3964 51.6549C14.7505 51.4759 15.0623 51.2157 15.3091 50.8933C15.5559 50.5708 15.7314 50.1942 15.8228 49.791C15.9034 49.4355 15.9161 49.0667 15.8601 48.706C15.8041 48.3453 15.6806 48 15.4967 47.6904L15.513 47.6947Z" fill="#C49F60"/></g>
	</symbol>
  <symbol id="wa" width="24" height="24" viewBox="0 0 24 24" xmlns="http://www.w3.org/2000/svg">
		<g><path d="M12 0C5.3736 0 0 5.3736 0 12C0 18.6264 5.3736 24 12 24C18.6264 24 24 18.6264 24 12C24 5.3736 18.6264 0 12 0ZM12.2543 18.9868C12.2542 18.9868 12.2545 18.9868 12.2543 18.9868H12.2514C11.0493 18.9862 9.8681 18.6848 8.81909 18.1128L5.01178 19.1113L6.03076 15.3906C5.40216 14.3018 5.07147 13.0666 5.07202 11.8011C5.07367 7.84241 8.29559 4.62177 12.2543 4.62177C14.1755 4.6225 15.9789 5.3703 17.3348 6.72729C18.6909 8.08447 19.4372 9.88843 19.4365 11.8068C19.4348 15.7657 16.2125 18.9868 12.2543 18.9868Z"/><path d="M12.2564 5.83447C8.96357 5.83447 6.28564 8.51129 6.28418 11.8017C6.28381 12.9293 6.59949 14.0273 7.19696 14.9775L7.33887 15.2032L6.73572 17.4055L8.99506 16.8129L9.21314 16.9422C10.1296 17.486 11.1802 17.7737 12.2514 17.774H12.2538C15.544 17.774 18.2219 15.097 18.2234 11.8065C18.224 10.2118 17.6036 8.71252 16.4766 7.58459C15.3496 6.45667 13.8507 5.83502 12.2564 5.83447ZM15.7676 14.3674C15.618 14.7863 14.9011 15.1688 14.5563 15.2205C14.2471 15.2666 13.856 15.2858 13.426 15.1494C13.1653 15.0667 12.8311 14.9562 12.4028 14.7715C10.6027 13.9944 9.42701 12.1824 9.33728 12.0626C9.24756 11.9429 8.6045 11.0898 8.6045 10.2067C8.6045 9.32373 9.06812 8.88959 9.23255 8.71014C9.39716 8.53052 9.59162 8.48566 9.71119 8.48566C9.83075 8.48566 9.95051 8.48676 10.0551 8.49188C10.1653 8.49738 10.3132 8.44995 10.4588 8.79987C10.6084 9.15912 10.9673 10.0421 11.0122 10.1318C11.057 10.2217 11.0869 10.3264 11.0272 10.4462C10.9673 10.5659 10.7684 10.8243 10.5786 11.0598C10.4989 11.1584 10.3951 11.2463 10.4998 11.426C10.6044 11.6054 10.9647 12.193 11.4981 12.6687C12.1837 13.2799 12.7619 13.4692 12.9414 13.5591C13.1206 13.6489 13.2253 13.6339 13.3301 13.5143C13.4346 13.3945 13.7787 12.9904 13.8983 12.8108C14.0178 12.6312 14.1376 12.6612 14.302 12.7211C14.4666 12.7808 15.3488 13.2149 15.5283 13.3046C15.7077 13.3945 15.8273 13.4394 15.8721 13.5143C15.9172 13.5892 15.9172 13.9482 15.7676 14.3674Z"/></g>
	</symbol>
  <symbol id="in" width="24" height="24" viewBox="0 0 24 24" xmlns="http://www.w3.org/2000/svg">
		<g><path d="M14.2969 12C14.2969 13.2686 13.2686 14.2969 12 14.2969C10.7314 14.2969 9.70312 13.2686 9.70312 12C9.70312 10.7314 10.7314 9.70312 12 9.70312C13.2686 9.70312 14.2969 10.7314 14.2969 12Z"/><path d="M17.3713 7.93616C17.2609 7.63696 17.0848 7.36615 16.8559 7.14386C16.6336 6.91498 16.363 6.73883 16.0636 6.62842C15.8208 6.53412 15.4561 6.42188 14.7842 6.3913C14.0575 6.35815 13.8396 6.35101 11.9998 6.35101C10.1597 6.35101 9.94183 6.35797 9.21527 6.39111C8.54346 6.42188 8.17853 6.53412 7.93591 6.62842C7.63654 6.73883 7.36572 6.91498 7.14362 7.14386C6.91473 7.36615 6.73859 7.63678 6.62799 7.93616C6.53369 8.17896 6.42145 8.54388 6.39087 9.2157C6.35773 9.94226 6.35059 10.1602 6.35059 12.0002C6.35059 13.84 6.35773 14.0579 6.39087 14.7847C6.42145 15.4565 6.53369 15.8212 6.62799 16.064C6.73859 16.3634 6.91455 16.634 7.14343 16.8563C7.36572 17.0852 7.63635 17.2614 7.93573 17.3718C8.17853 17.4662 8.54346 17.5785 9.21527 17.6091C9.94183 17.6422 10.1595 17.6492 11.9996 17.6492C13.8398 17.6492 14.0577 17.6422 14.7841 17.6091C15.4559 17.5785 15.8208 17.4662 16.0636 17.3718C16.6646 17.14 17.1395 16.665 17.3713 16.064C17.4656 15.8212 17.5779 15.4565 17.6086 14.7847C17.6418 14.0579 17.6487 13.84 17.6487 12.0002C17.6487 10.1602 17.6418 9.94226 17.6086 9.2157C17.5781 8.54388 17.4658 8.17896 17.3713 7.93616ZM11.9998 15.5383C10.0455 15.5383 8.46124 13.9543 8.46124 12C8.46124 10.0457 10.0455 8.46167 11.9998 8.46167C13.9539 8.46167 15.5381 10.0457 15.5381 12C15.5381 13.9543 13.9539 15.5383 11.9998 15.5383ZM15.678 9.14868C15.2213 9.14868 14.8511 8.77844 14.8511 8.32178C14.8511 7.86511 15.2213 7.49487 15.678 7.49487C16.1346 7.49487 16.5049 7.86511 16.5049 8.32178C16.5047 8.77844 16.1346 9.14868 15.678 9.14868Z"/><path d="M12 0C5.3736 0 0 5.3736 0 12C0 18.6264 5.3736 24 12 24C18.6264 24 24 18.6264 24 12C24 5.3736 18.6264 0 12 0ZM18.8491 14.8409C18.8157 15.5744 18.6991 16.0752 18.5288 16.5135C18.1708 17.4391 17.4391 18.1708 16.5135 18.5288C16.0754 18.6991 15.5744 18.8156 14.8411 18.8491C14.1063 18.8826 13.8715 18.8906 12.0002 18.8906C10.1287 18.8906 9.8941 18.8826 9.15912 18.8491C8.42578 18.8156 7.9248 18.6991 7.48663 18.5288C7.02667 18.3558 6.61029 18.0846 6.26605 17.7339C5.91559 17.3899 5.64441 16.9733 5.47137 16.5135C5.30109 16.0754 5.18445 15.5744 5.15112 14.8411C5.11725 14.1061 5.10938 13.8713 5.10938 12C5.10938 10.1287 5.11725 9.89392 5.15094 9.15912C5.18427 8.4256 5.30072 7.9248 5.47101 7.48645C5.64404 7.02667 5.91541 6.61011 6.26605 6.26605C6.61011 5.91541 7.02667 5.64423 7.48645 5.47119C7.9248 5.3009 8.4256 5.18445 9.15912 5.15094C9.89392 5.11743 10.1287 5.10938 12 5.10938C13.8713 5.10938 14.1061 5.11743 14.8409 5.15112C15.5744 5.18445 16.0752 5.3009 16.5135 5.47101C16.9733 5.64404 17.3899 5.91541 17.7341 6.26605C18.0846 6.61029 18.356 7.02667 18.5288 7.48645C18.6993 7.9248 18.8157 8.4256 18.8492 9.15912C18.8828 9.89392 18.8906 10.1287 18.8906 12C18.8906 13.8713 18.8828 14.1061 18.8491 14.8409Z"/></g>
	</symbol>
  <symbol id="fb" width="24" height="24" viewBox="0 0 24 24" xmlns="http://www.w3.org/2000/svg">
		<g><path d="M24 12C24 5.37188 18.6281 0 12 0C5.37188 0 0 5.37188 0 12C0 18.6281 5.37188 24 12 24C12.0703 24 12.1406 24 12.2109 23.9953V14.6578H9.63281V11.6531H12.2109V9.44062C12.2109 6.87656 13.7766 5.47969 16.0641 5.47969C17.1609 5.47969 18.1031 5.55938 18.375 5.59688V8.27813H16.8C15.5578 8.27813 15.3141 8.86875 15.3141 9.73594V11.6484H18.2906L17.9016 14.6531H15.3141V23.5359C20.3297 22.0969 24 17.4797 24 12Z"/></g>
	</symbol>

  <symbol id="mob" width="24" height="24" viewBox="0 0 24 24" fill="none" xmlns="http://www.w3.org/2000/svg">
		<g>
      <path d="M23.25 7.49984H0.750044C0.336027 7.49984 6.29425e-05 7.16381 6.29425e-05 6.74986C6.29425e-05 6.33584 0.336088 5.99988 0.750044 5.99988H23.25C23.664 5.99988 24 6.3359 24 6.74986C24 7.16381 23.664 7.49984 23.25 7.49984Z" fill="#707070"/>
      <path d="M0.750044 11.25H23.25C23.664 11.25 24 11.586 24 12C24 12.4139 23.664 12.75 23.25 12.75H0.750044C0.336027 12.75 6.29425e-05 12.4139 6.29425e-05 12C6.29425e-05 11.586 0.336027 11.25 0.750044 11.25Z" fill="#707070"/>
      <path d="M0.750037 16.5H15.75C16.164 16.5 16.5 16.836 16.5 17.25C16.5 17.664 16.164 18 15.75 18H0.750037C0.336021 18 5.72205e-05 17.6639 5.72205e-05 17.25C-5.72205e-06 16.836 0.336021 16.5 0.750037 16.5Z" fill="#707070"/>
    </g>
	</symbol>
  <symbol id="adr" width="12" height="16" viewBox="0 0 12 16" fill="none" xmlns="http://www.w3.org/2000/svg">
		<g><path d="M6.20182 0.00333482C2.95254 -0.106167 0.28418 2.49519 0.28418 5.71972C0.28418 9.37922 3.79604 12.035 5.76443 15.8544C5.86437 16.0484 6.14353 16.0486 6.24381 15.8547C8.02451 12.418 11.068 10.1135 11.632 6.80266C12.216 3.37656 9.67529 0.120438 6.20182 0.00333482ZM6.00384 8.71572C4.34922 8.71572 3.00784 7.37431 3.00784 5.71972C3.00784 4.06513 4.34925 2.72372 6.00384 2.72372C7.65846 2.72372 8.99987 4.06513 8.99987 5.71972C8.99987 7.37431 7.65846 8.71572 6.00384 8.71572Z" fill="#707070"/></g>
	</symbol>

</svg>