<svg>
  <symbol id="viber" width="24" height="24" viewBox="0 0 24 24" xmlns="http://www.w3.org/2000/svg">
    <path d="M12 0C5.3736 0 0 5.3736 0 12C0 18.6264 5.3736 24 12 24C18.6264 24 24 18.6264 24 12C24 5.3736 18.6264 0 12 0ZM12.2543 18.9868C12.2542 18.9868 12.2545 18.9868 12.2543 18.9868H12.2514C11.0493 18.9862 9.8681 18.6848 8.81909 18.1128L5.01178 19.1113L6.03076 15.3906C5.40216 14.3018 5.07147 13.0666 5.07202 11.8011C5.07367 7.84241 8.29559 4.62177 12.2543 4.62177C14.1755 4.6225 15.9789 5.3703 17.3348 6.72729C18.6909 8.08447 19.4372 9.88843 19.4365 11.8068C19.4348 15.7657 16.2125 18.9868 12.2543 18.9868Z"/>
    <path d="M12.2568 5.83447C8.96405 5.83447 6.28613 8.51129 6.28467 11.8017C6.2843 12.9293 6.59998 14.0273 7.19745 14.9775L7.33936 15.2032L6.73621 17.4055L8.99555 16.8129L9.21363 16.9422C10.1301 17.486 11.1807 17.7737 12.2519 17.774H12.2543C15.5445 17.774 18.2224 15.097 18.2239 11.8065C18.2244 10.2118 17.6041 8.71252 16.4771 7.58459C15.35 6.45667 13.8511 5.83502 12.2568 5.83447ZM15.7681 14.3674C15.6185 14.7863 14.9016 15.1688 14.5568 15.2205C14.2476 15.2666 13.8565 15.2858 13.4265 15.1494C13.1658 15.0667 12.8316 14.9562 12.4033 14.7715C10.6032 13.9944 9.42749 12.1824 9.33777 12.0626C9.24805 11.9429 8.60498 11.0898 8.60498 10.2067C8.60498 9.32373 9.06861 8.88959 9.23304 8.71014C9.39765 8.53052 9.59211 8.48566 9.71167 8.48566C9.83124 8.48566 9.95099 8.48676 10.0555 8.49188C10.1658 8.49738 10.3137 8.44995 10.4593 8.79987C10.6089 9.15912 10.9678 10.0421 11.0126 10.1318C11.0575 10.2217 11.0873 10.3264 11.0277 10.4462C10.9678 10.5659 10.7689 10.8243 10.579 11.0598C10.4994 11.1584 10.3956 11.2463 10.5003 11.426C10.6049 11.6054 10.9652 12.193 11.4986 12.6687C12.1842 13.2799 12.7624 13.4692 12.9418 13.5591C13.1211 13.6489 13.2258 13.6339 13.3306 13.5143C13.4351 13.3945 13.7792 12.9904 13.8988 12.8108C14.0183 12.6312 14.1381 12.6612 14.3025 12.7211C14.4671 12.7808 15.3493 13.2149 15.5288 13.3046C15.7082 13.3945 15.8278 13.4394 15.8726 13.5143C15.9177 13.5892 15.9177 13.9482 15.7681 14.3674Z"/>
  </symbol>
  <symbol id="instagram" width="24" height="24" viewBox="0 0 24 24" xmlns="http://www.w3.org/2000/svg">
    <path d="M14.2969 12C14.2969 13.2686 13.2686 14.2969 12 14.2969C10.7314 14.2969 9.70312 13.2686 9.70312 12C9.70312 10.7314 10.7314 9.70312 12 9.70312C13.2686 9.70312 14.2969 10.7314 14.2969 12Z"/>
    <path d="M17.3713 7.93616C17.2609 7.63696 17.0848 7.36615 16.8559 7.14386C16.6336 6.91498 16.363 6.73883 16.0636 6.62842C15.8208 6.53412 15.4561 6.42188 14.7842 6.3913C14.0575 6.35815 13.8396 6.35101 11.9998 6.35101C10.1597 6.35101 9.94183 6.35797 9.21527 6.39111C8.54346 6.42188 8.17853 6.53412 7.93591 6.62842C7.63654 6.73883 7.36572 6.91498 7.14362 7.14386C6.91473 7.36615 6.73859 7.63678 6.62799 7.93616C6.53369 8.17896 6.42145 8.54388 6.39087 9.2157C6.35773 9.94226 6.35059 10.1602 6.35059 12.0002C6.35059 13.84 6.35773 14.0579 6.39087 14.7847C6.42145 15.4565 6.53369 15.8212 6.62799 16.064C6.73859 16.3634 6.91455 16.634 7.14343 16.8563C7.36572 17.0852 7.63635 17.2614 7.93573 17.3718C8.17853 17.4662 8.54346 17.5785 9.21527 17.6091C9.94183 17.6422 10.1595 17.6492 11.9996 17.6492C13.8398 17.6492 14.0577 17.6422 14.7841 17.6091C15.4559 17.5785 15.8208 17.4662 16.0636 17.3718C16.6646 17.14 17.1395 16.665 17.3713 16.064C17.4656 15.8212 17.5779 15.4565 17.6086 14.7847C17.6418 14.0579 17.6487 13.84 17.6487 12.0002C17.6487 10.1602 17.6418 9.94226 17.6086 9.2157C17.5781 8.54388 17.4658 8.17896 17.3713 7.93616ZM11.9998 15.5383C10.0455 15.5383 8.46124 13.9543 8.46124 12C8.46124 10.0457 10.0455 8.46167 11.9998 8.46167C13.9539 8.46167 15.5381 10.0457 15.5381 12C15.5381 13.9543 13.9539 15.5383 11.9998 15.5383ZM15.678 9.14868C15.2213 9.14868 14.8511 8.77844 14.8511 8.32178C14.8511 7.86511 15.2213 7.49487 15.678 7.49487C16.1346 7.49487 16.5049 7.86511 16.5049 8.32178C16.5047 8.77844 16.1346 9.14868 15.678 9.14868Z"/>
    <path d="M12 0C5.3736 0 0 5.3736 0 12C0 18.6264 5.3736 24 12 24C18.6264 24 24 18.6264 24 12C24 5.3736 18.6264 0 12 0ZM18.8491 14.8409C18.8157 15.5744 18.6991 16.0752 18.5288 16.5135C18.1708 17.4391 17.4391 18.1708 16.5135 18.5288C16.0754 18.6991 15.5744 18.8156 14.8411 18.8491C14.1063 18.8826 13.8715 18.8906 12.0002 18.8906C10.1287 18.8906 9.8941 18.8826 9.15912 18.8491C8.42578 18.8156 7.9248 18.6991 7.48663 18.5288C7.02667 18.3558 6.61029 18.0846 6.26605 17.7339C5.91559 17.3899 5.64441 16.9733 5.47137 16.5135C5.30109 16.0754 5.18445 15.5744 5.15112 14.8411C5.11725 14.1061 5.10938 13.8713 5.10938 12C5.10938 10.1287 5.11725 9.89392 5.15094 9.15912C5.18427 8.4256 5.30072 7.9248 5.47101 7.48645C5.64404 7.02667 5.91541 6.61011 6.26605 6.26605C6.61011 5.91541 7.02667 5.64423 7.48645 5.47119C7.9248 5.3009 8.4256 5.18445 9.15912 5.15094C9.89392 5.11743 10.1287 5.10938 12 5.10938C13.8713 5.10938 14.1061 5.11743 14.8409 5.15112C15.5744 5.18445 16.0752 5.3009 16.5135 5.47101C16.9733 5.64404 17.3899 5.91541 17.7341 6.26605C18.0846 6.61029 18.356 7.02667 18.5288 7.48645C18.6993 7.9248 18.8157 8.4256 18.8492 9.15912C18.8828 9.89392 18.8906 10.1287 18.8906 12C18.8906 13.8713 18.8828 14.1061 18.8491 14.8409Z"/>
  </symbol>
  <symbol id="phone" width="24" height="24" viewBox="0 0 24 24" xmlns="http://www.w3.org/2000/svg">
    <path d="M12 0C5.373 0 0 5.373 0 12C0 18.627 5.373 24 12 24C18.627 24 24 18.627 24 12C24 5.373 18.627 0 12 0ZM18 18.75C10.9695 18.75 5.25 13.0305 5.25 6C5.25 5.586 5.586 5.25 6 5.25H8.769C9.183 5.25 9.519 5.586 9.519 6C9.519 7.296 9.801 8.5305 10.3575 9.6675C10.446 9.8475 10.458 10.053 10.392 10.242C10.3275 10.431 10.1895 10.5855 10.0095 10.6725L8.8905 11.2125C9.822 12.834 11.166 14.1795 12.786 15.108L13.326 13.9905C13.413 13.8105 13.5675 13.674 13.7565 13.608C13.9455 13.5435 14.1525 13.5555 14.331 13.6425C15.471 14.199 16.704 14.481 17.9985 14.481C18.4125 14.481 18.7485 14.817 18.7485 15.231V18H18.75C18.75 18.414 18.414 18.75 18 18.75Z"/>
  </symbol>
	<symbol id="arrow" width="51" height="8" viewBox="0 0 51 8" xmlns="http://www.w3.org/2000/svg">
    <path d="M50.3536 4.35355C50.5488 4.15829 50.5488 3.84171 50.3536 3.64645L47.1716 0.464466C46.9763 0.269204 46.6597 0.269204 46.4645 0.464466C46.2692 0.659728 46.2692 0.976311 46.4645 1.17157L49.2929 4L46.4645 6.82843C46.2692 7.02369 46.2692 7.34027 46.4645 7.53553C46.6597 7.7308 46.9763 7.7308 47.1716 7.53553L50.3536 4.35355ZM0 4.5H50V3.5H0V4.5Z"/>
	</symbol>
  <symbol id="line" width="1" height="48" viewBox="0 0 1 48" xmlns="http://www.w3.org/2000/svg">
    <line opacity="0.3" x1="0.5" y1="0.5" x2="0.5" y2="47.5" stroke="white" stroke-linecap="round"/>
	</symbol>

	<symbol id="icon-3" viewBox="0 0 32 32" xmlns="http://www.w3.org/2000/svg">

		<g><path d="M16,2,3,6.28V12C3,26.61,15.63,29.94,15.76,30L16,30l.24-.06c.13,0,12.76-3.36,12.76-18V6.28ZM27,12c0,12.1-9.31,15.45-11,16C14.31,27.45,5,24.1,5,12V7.72L16,4.05,27,7.72Z"/><path d="M11.59,15l-1.42,1.41,2.29,2.29a2,2,0,0,0,1.42.59,2,2,0,0,0,1.41-.59l6.54-6.53-1.42-1.42-6.53,6.54Z"/></g>

	</symbol>


</svg>