<?xml version="1.0" encoding="UTF-8" standalone="no"?>
<svg
   xmlns:dc="http://purl.org/dc/elements/1.1/"
   xmlns:cc="http://creativecommons.org/ns#"
   xmlns:rdf="http://www.w3.org/1999/02/22-rdf-syntax-ns#"
   xmlns:svg="http://www.w3.org/2000/svg"
   xmlns="http://www.w3.org/2000/svg"
   xmlns:sodipodi="http://sodipodi.sourceforge.net/DTD/sodipodi-0.dtd"
   xmlns:inkscape="http://www.inkscape.org/namespaces/inkscape"
   version="1.1"
   id="svg62"
   width="682.66669"
   height="682.66669"
   viewBox="0 0 682.66669 682.66669"
   sodipodi:docname="y.png.svg"
   inkscape:version="1.0.2 (e86c870879, 2021-01-15)">
  <metadata
     id="metadata68">
    <rdf:RDF>
      <cc:Work
         rdf:about="">
        <dc:format>image/svg+xml</dc:format>
        <dc:type
           rdf:resource="http://purl.org/dc/dcmitype/StillImage" />
        <dc:title></dc:title>
      </cc:Work>
    </rdf:RDF>
  </metadata>
  <defs
     id="defs66" />
  <sodipodi:namedview
     pagecolor="#ffffff"
     bordercolor="#666666"
     borderopacity="1"
     objecttolerance="10"
     gridtolerance="10"
     guidetolerance="10"
     inkscape:pageopacity="0"
     inkscape:pageshadow="2"
     inkscape:window-width="1600"
     inkscape:window-height="836"
     id="namedview64"
     showgrid="false"
     inkscape:zoom="0.66187679"
     inkscape:cx="473.42326"
     inkscape:cy="273.40456"
     inkscape:window-x="0"
     inkscape:window-y="0"
     inkscape:window-maximized="1"
     inkscape:current-layer="g70" />
  <g
     inkscape:groupmode="layer"
     inkscape:label="Image"
     id="g70">
    <path
       style="fill:#8c8c8c;fill-opacity:1;stroke-width:1.33333"
       d="M 304.44076,678.76289 C 195.14918,665.52135 101.67883,603.07372 46.879721,506.68613 -8.8485793,408.66414 -10.090099,280.62903 43.720291,180.86267 91.524351,92.232251 175.70625,28.665427 272.21614,8.3225264 399.72489,-18.554491 529.16924,27.623744 610.10778,128.86266 c 90.12474,112.72913 98.82696,272.04719 21.52095,394.00002 -48.54903,76.58772 -128.03286,132.06357 -215.68858,150.54014 -34.77882,7.33087 -78.05999,9.41151 -111.49939,5.36007 z m 11.11782,-201.56688 c 28.67765,-43.08333 53.08878,-79.83333 54.24695,-81.66667 l 2.10578,-3.33333 -20.8616,-14 c -56.89627,-38.18248 -72.58997,-54.85098 -80.99534,-86.02626 -3.31913,-12.31054 -4.06629,-37.987 -1.4304,-49.15604 4.92756,-20.87952 18.2962,-37.67464 37.16637,-46.69243 17.27387,-8.25493 36.10438,-11.39298 68.62114,-11.4355 l 17.66667,-0.0231 v 185.33334 185.33334 h 37.33333 37.33334 V 340.86267 126.19599 l -58.33334,0.005 c -32.08333,0.003 -65.23334,0.63653 -73.66667,1.40894 -56.32957,5.1592 -96.31371,25.21871 -120.2578,60.33173 -25.00427,36.66773 -29.26599,93.41843 -10.41566,138.69897 9.6972,23.29371 33.30143,51.30269 61.34013,72.78671 6.96666,5.33805 12.8423,10.17178 13.05698,10.74162 0.21467,0.56984 -2.82321,5.75914 -6.75086,11.53179 -23.71946,34.86152 -88.97279,132.46988 -88.97279,133.08882 0,0.40713 18.15133,0.74025 40.3363,0.74025 h 40.33631 z"
       id="path74" />
  </g>
</svg>
